<?xml version="1.0" encoding="utf-8"?>
<!-- Generator: Adobe Illustrator 24.1.2, SVG Export Plug-In . SVG Version: 6.00 Build 0)  -->
<svg version="1.1" id="CTX_Division_TILES__x28_A-Z__x2F__numbered_x29_"
	 xmlns="http://www.w3.org/2000/svg" xmlns:xlink="http://www.w3.org/1999/xlink" x="0px" y="0px" viewBox="0 0 792 452.51"
	 style="enable-background:new 0 0 792 452.51;" xml:space="preserve">
<style type="text/css">
	.st0{fill:#1A8456;}
	.st1{fill:#919126;}
	.st2{fill:#604319;}
	.st3{fill:#739B50;}
	.st4{fill:#5B0096;}
	.st5{fill:#378958;}
	.st6{fill:#E2982D;}
	.st7{fill:#91BF00;}
	.st8{fill:#339928;}
	.st9{fill:#97E500;}
	.st10{fill:#00590F;}
	.st11{fill:#CC33FF;}
	.st12{fill:#CC3399;}
	.st13{fill:#CC3333;}
	.st14{fill:#CC6699;}
	.st15{fill:#00FF99;}
	.st16{fill:#CC66FF;}
	.st17{fill:#FFFF33;}
	.st18{fill:#00FFFF;}
	.st19{fill:#CC6633;}
	.st20{fill:#000044;}
	.st21{fill:#3300FF;}
	.st22{fill:#08585E;}
	.st23{fill:#605A34;}
	.st24{fill:#562F53;}
	.st25{fill:#1E1815;}
	.st26{fill:#627C43;}
	.st27{fill:#70162A;}
	.st28{fill:#8A9AAD;}
	.st29{fill:#B29BBC;}
	.st30{fill:#A367BF;}
	.st31{fill:#562F3B;}
	.st32{fill:#1A1C0F;}
	.st33{fill:#78CADD;}
	.st34{fill:#191970;}
	.st35{fill:#4A5E50;}
	.st36{fill:#4D4156;}
	.st37{fill:#262A33;}
	.st38{fill:#2E3C3D;}
	.st39{fill:#E5A8BB;}
	.st40{fill:#66620E;}
	.st41{fill:#094C0E;}
	.st42{fill:#60AD1E;}
	.st43{fill:#44061E;}
	.st44{fill:#77770C;}
	.st45{fill:#8363B7;}
	.st46{fill:#965160;}
	.st47{fill:#5E5711;}
	.st48{fill:#776640;}
	.st49{fill:#2D0427;}
	.st50{fill:#62227A;}
	.st51{fill:#BF2B0D;}
	.st52{fill:#468446;}
	.st53{fill:#43427A;}
	.st54{fill:#AFC66D;}
	.st55{fill:#845396;}
	.st56{fill:#22331C;}
	.st57{fill:#5D7C45;}
	.st58{fill:#463849;}
	.st59{fill:#65723F;}
	.st60{fill:#66363B;}
	.st61{fill:#301A30;}
	.st62{fill:#1E191E;}
	.st63{fill:#9E6395;}
	.st64{fill:#D5C6F4;}
	.st65{fill:#B0D6D0;}
	.st66{fill:#1A0059;}
	.st67{fill:#723300;}
	.st68{fill:#647F82;}
	.st69{fill:#0F9900;}
	.st70{fill:#5A008E;}
	.st71{fill:#560052;}
	.st72{fill:#6D0065;}
	.st73{fill:#00939E;}
	.st74{fill:#BF9595;}
	.st75{fill:#5F5F72;}
	.st76{fill:#490051;}
	.st77{fill:#4E6B00;}
	.st78{fill:#7F7F12;}
	.st79{fill:#6F457F;}
	.st80{fill:#3E2C51;}
	.st81{fill:#569B97;}
	.st82{fill:#603457;}
	.st83{fill:#3A3460;}
	.st84{fill:#6D453C;}
	.st85{fill:#2C2F51;}
	.st86{fill:#FF1212;}
	.st87{fill:#F98592;}
	.st88{fill:#1D2D18;}
	.st89{fill:#315B33;}
	.st90{fill:#63427C;}
	.st91{fill:#FF9D33;}
	.st92{fill:#0B4EAF;}
	.st93{fill:#767E91;}
	.st94{fill:#458255;}
	.st95{fill:#6A71C6;}
	.st96{fill:#BF6ECE;}
	.st97{fill:#445B7F;}
	.st98{fill:#992043;}
	.st99{fill:#755B5B;}
	.st100{fill:#3D2E2E;}
	.st101{fill:#1B3233;}
	.st102{fill:#705366;}
	.st103{fill:#821573;}
	.st104{fill:#260524;}
	.st105{fill:#290A59;}
	.st106{fill:#16891B;}
	.st107{fill:#F9AC12;}
	.st108{fill:#C4127C;}
	.st109{fill:#8899FF;}
	.st110{fill:#336040;}
	.st111{fill:#8E1919;}
	.st112{fill:#FFC688;}
	.st113{fill:#310B99;}
	.st114{fill:#245F84;}
	.st115{fill:#073E6B;}
	.st116{fill:#142326;}
	.st117{fill:#512B3B;}
	.st118{fill:#7C4B43;}
	.st119{fill:#AF5D69;}
	.st120{fill:#272E49;}
	.st121{fill:#6655A0;}
	.st122{fill:#354200;}
	.st123{fill:#5FB298;}
	.st124{fill:#FFCC85;}
	.st125{fill:#4A8446;}
	.st126{fill:#086600;}
	.st127{fill:#A6AA00;}
	.st128{fill:#6000F7;}
	.st129{fill:#0BD8BF;}
	.st130{fill:#00F77B;}
	.st131{fill:#00E010;}
	.st132{fill:#00F7C8;}
	.st133{fill:#1F3300;}
	.st134{fill:#438200;}
	.st135{fill:#68AA00;}
	.st136{fill:#933B00;}
	.st137{fill:#725C00;}
	.st138{fill:#C10000;}
	.st139{fill:#D8D5B2;}
	.st140{fill:#300600;}
	.st141{fill:#F90000;}
	.st142{fill:#A7FC22;}
	.st143{fill:#B3B762;}
	.st144{fill:#7E8C4B;}
	.st145{fill:#4C2E29;}
	.st146{fill:#E07A77;}
	.st147{fill:#493527;}
	.st148{fill:#C1A168;}
	.st149{fill:#F99085;}
</style>
<path id="TH_Left" class="st0" d="M223.42,242.89c2.63,3.8,5.87,7.83,8.58,9.94c6.43,5.01,15.45,7.75,22.68,10.13
	c10.62,3.5,21.08,6.13,32.81,7.27c18.87,1.84,27.88-0.69,29.03-9.26c0.43-3.24,0.9-4.88-0.99-6.69c-0.27-0.26-0.63-1.25,0.31-2.11
	c1.3-1.19,0.57-3.62,0.67-4.92c0.02-0.31,0.1-1.81,0.1-1.81l0.02-9.95h-0.03c0,0-62.9,1.14-74.08,2.03
	C231.35,238.42,223.42,242.89,223.42,242.89L223.42,242.89z"/>
<path id="TG_Left" class="st1" d="M316.66,226.33l-0.02,9.16l-0.02,9.95c0,0,0.54-3.1,1.9-4.9c0.58-0.76,1.32-0.97,1.94-0.18
	c0.37-4.02,2.3-4.83,3.46-4.88c9.9-0.46,18.22,0.04,26.72,0.1l0.02,0.01l0-9.26L316.66,226.33z"/>
<path id="TC_Left" class="st2" d="M320.45,240.36c0.63,0.81,1.12,2.67,1.12,5.94c0,3.58,1.51,4.8,7.04,5.08
	c5.38,0.28,6.66-0.48,7.1-5.31c0.48-5.32,3.02-6.33,3.34-3.72c0.64,5.26,0.88,7.72,6.03,5.19c2.55-1.26,5.44-3.38,5.58-5.12
	l-0.01-6.84l-0.02-0.01c-8.5-0.06-16.82-0.56-26.72-0.1C322.74,235.54,320.82,236.34,320.45,240.36z"/>
<path id="STR_Left" class="st3" d="M323.59,294.46c-0.79-0.96-1.61-1.91-2.46-2.82l-0.02,0c-0.67-0.69-2.32-2.17-4.35-3.82
	c-5.9-4.78-15.86-8.04-25.28-9.36c-13.47-1.89-29.03-5.66-39.21-11.12c-10.34-5.55-15.96-8.41-23.18-15.62
	c-2.33-2.33-3.83-5.48-5.67-8.82c-3.41-4.8-5.83-11.85-5.83-16.56l-15.46,0c2.15,17.29,10.43,32.32,23.54,41.29
	c13.87,9.49,35.07,17.49,58.25,20.8c23.18,3.31,29.31,3.97,39.24,5.96L323.59,294.46z"/>
<path id="SP_Left" class="st4" d="M721.19,226.33c-0.17,4.81-19.28,7.81-61.08,7.81c-38.96,0-109.09,0-201.19,0
	c-4.08,0-11.19,1.33-16.73,3.46v-11.27L721.19,226.33z"/>
<path id="PAL_Left" class="st5" d="M186.01,226.33c0.1,10.63,1.37,17.26,3.93,25.13c2.71,8.33,10.14,18.92,18.64,26.05
	c8.5,7.13,17.55,11.24,28.79,15.63c11.24,4.39,22.75,7.4,35.91,9.05c10.36,1.3,17.16,1.13,24.12,0.3c1.88-0.22,3.78-0.56,5.76-0.85
	c9.32-1.37,16.42-2.87,21.9-5.34l0,0c-0.47-0.6-0.99-1.24-1.48-1.83l-0.43-0.08c-9.93-1.99-16.06-2.65-39.24-5.96
	c-23.18-3.31-44.37-11.31-58.25-20.8c-13.11-8.97-21.4-23.99-23.54-41.29L186.01,226.33z"/>
<polygon id="P_Left" class="st6" points="350.64,226.33 392.89,226.34 392.87,241.8 350.65,242.43 350.64,235.59 "/>
<path id="MY_Left" class="st7" d="M442.19,226.33v11.27h0c0,0-5.02,1.73-12.49,2.33c-9.11,0.73-36.82,1.87-36.82,1.87l0.02-15.46
	L442.19,226.33z"/>
<path id="HY_Left" class="st8" d="M217.59,226.33c0,4.71,2.42,11.76,5.83,16.56l0,0c0,0,7.93-4.48,19.11-5.37
	c11.18-0.89,74.08-2.03,74.08-2.03h0.03l0.02-9.16L217.59,226.33z"/>
<path id="CBX_Left" class="st9" d="M392.87,241.8c0.87,3.48,13.08,3.43,20.05,3.43c6.97,0,16.26,0.18,22.64,0.87
	c18.08,1.96,23.86,13.23,25.26,36.58c1.11,18.53-3.62,31.2-14.61,38.04c-5.83,3.62-15.42,6.36-25.81,7.12
	c-9.72,0.71-20.15-0.36-28.84-2.74c-19.4-5.31-32.33-10.42-45.36-17.44c-11.37-6.12-17.53-17.29-19.51-27.58
	c-2.28-11.87,0.94-22.22,7.84-23.52c10.12-1.9,16.75-5.59,17.81-9.33c4.02,4.47,12.08,7.95,20.57,7.51
	C381.4,254.28,391.92,251.49,392.87,241.8L392.87,241.8z"/>
<path id="CBN_Left" class="st10" d="M350.65,242.43c0,0,0.15,0.39,0.39,0.64c1.29,1.33,1.69,2.73,1.29,4.14
	c4.02,4.47,12.08,7.95,20.57,7.51c8.49-0.45,19.01-3.24,19.96-12.93L350.65,242.43z"/>
<path id="TH_Right" class="st11" d="M223.42,209.77c2.63-3.8,5.87-7.83,8.58-9.94c6.43-5.01,15.45-7.75,22.68-10.13
	c10.62-3.5,21.08-6.13,32.81-7.27c18.87-1.84,27.88,0.69,29.03,9.26c0.43,3.24,0.9,4.88-0.99,6.69c-0.27,0.26-0.63,1.25,0.31,2.11
	c1.3,1.19,0.57,3.62,0.67,4.92c0.02,0.31,0.1,1.81,0.1,1.81l0.02,9.95h-0.03c0,0-62.9-1.14-74.08-2.03
	C231.35,214.25,223.42,209.77,223.42,209.77L223.42,209.77z"/>
<path id="TG_Right" class="st12" d="M316.66,226.34l-0.02-9.16l-0.02-9.95c0,0,0.54,3.1,1.9,4.9c0.58,0.76,1.32,0.97,1.94,0.18
	c0.37,4.02,2.3,4.83,3.46,4.88c9.9,0.46,18.22-0.04,26.72-0.1l0.02-0.01l0,9.26L316.66,226.34z"/>
<path id="TC_Right" class="st13" d="M320.45,212.3c0.63-0.81,1.12-2.67,1.12-5.94c0-3.58,1.51-4.8,7.04-5.08
	c5.38-0.28,6.66,0.48,7.1,5.31c0.48,5.32,3.02,6.33,3.34,3.72c0.64-5.26,0.88-7.72,6.03-5.19c2.55,1.26,5.44,3.38,5.58,5.12
	l-0.01,6.84l-0.02,0.01c-8.5,0.06-16.82,0.56-26.72,0.1C322.74,217.13,320.82,216.32,320.45,212.3z"/>
<path id="STR_Right" class="st14" d="M323.59,158.21c-0.79,0.96-1.61,1.91-2.46,2.82l-0.02,0c-0.67,0.69-2.32,2.17-4.35,3.82
	c-5.9,4.78-15.86,8.04-25.28,9.36c-13.47,1.89-29.03,5.66-39.21,11.12c-10.34,5.55-15.96,8.41-23.18,15.62
	c-2.33,2.33-3.83,5.48-5.67,8.82c-3.41,4.8-5.83,11.85-5.83,16.56l-15.46,0c2.15-17.29,10.43-32.32,23.54-41.29
	c13.87-9.49,35.07-17.49,58.25-20.8c23.18-3.31,29.31-3.97,39.24-5.96L323.59,158.21z"/>
<path id="SP_Right" class="st15" d="M721.19,226.34c-0.17-4.81-19.28-7.81-61.08-7.81c-38.96,0-109.09,0-201.19,0
	c-4.08,0-11.19-1.33-16.73-3.46v11.27L721.19,226.34z"/>
<path id="PAL_Right" class="st16" d="M186.01,226.33c0.1-10.63,1.37-17.26,3.93-25.13c2.71-8.33,10.14-18.92,18.64-26.05
	c8.5-7.13,17.55-11.24,28.79-15.63c11.24-4.39,22.75-7.4,35.91-9.05c10.36-1.3,17.16-1.13,24.12-0.3c1.88,0.22,3.78,0.56,5.76,0.85
	c9.32,1.37,16.42,2.87,21.9,5.34l0,0c-0.47,0.6-0.99,1.24-1.48,1.83l-0.43,0.08c-9.93,1.99-16.06,2.65-39.24,5.96
	c-23.18,3.31-44.37,11.31-58.25,20.8c-13.11,8.97-21.4,23.99-23.54,41.29L186.01,226.33z"/>
<polygon id="P_Right" class="st17" points="350.64,226.34 392.89,226.33 392.87,210.87 350.65,210.23 350.64,217.08 "/>
<path id="MY_Right" class="st18" d="M442.19,226.34v-11.27h0c0,0-5.02-1.73-12.49-2.33c-9.11-0.73-36.82-1.87-36.82-1.87l0.02,15.46
	L442.19,226.34z"/>
<path id="HY_Right" class="st19" d="M217.59,226.34c0-4.71,2.42-11.76,5.83-16.56l0,0c0,0,7.93,4.48,19.11,5.37
	c11.18,0.89,74.08,2.03,74.08,2.03h0.03l0.02,9.16L217.59,226.34z"/>
<path id="CBX_Right" class="st20" d="M392.87,210.87c0.87-3.48,13.08-3.43,20.05-3.43c6.97,0,16.26-0.18,22.64-0.87
	c18.08-1.96,23.86-13.23,25.26-36.58c1.11-18.53-3.62-31.2-14.61-38.04c-5.83-3.62-15.42-6.36-25.81-7.12
	c-9.72-0.71-20.15,0.36-28.84,2.74c-19.4,5.31-32.33,10.42-45.36,17.44c-11.37,6.12-17.53,17.29-19.51,27.58
	c-2.28,11.87,0.94,22.22,7.84,23.52c10.12,1.9,16.75,5.59,17.81,9.33c4.02-4.47,12.08-7.95,20.57-7.51
	C381.4,198.39,391.92,201.18,392.87,210.87L392.87,210.87z"/>
<path id="CB_Right" class="st21" d="M350.65,210.23c0,0,0.15-0.39,0.39-0.64c1.29-1.33,1.69-2.73,1.29-4.14
	c4.02-4.47,12.08-7.95,20.57-7.51c8.49,0.45,19.01,3.24,19.96,12.93L350.65,210.23z"/>
<path id="SUBv_Left" class="st22" d="M316.03,302.87c3.31-2.6,5.36-4.14,7.99-5.93c-4.66,11.56-3.55,20.65,5.85,24.84
	c0.27,0.12,0.55,0.24,0.84,0.36l-2.7,1.33c-1.11-0.56-2.14-1.15-3.03-1.8c-3.53-2.57-5.49-5.29-5.99-8.34
	c-0.75-4.59-2.05-8.19-5.15-5.41c0.35-1.12,1-2.86,2.2-5.05"/>
<path id="SUBd_Left" class="st23" d="M366.91,328.96c0.08-0.03,0.15-0.06,0.23-0.08c1.65-0.61,3.05-1.23,4.64-1.38
	c-1.51,0.17-3.09,0.29-4.67,0.37c-2.88,0.14-5.87,0.19-8.88-0.03c-1.08-0.08-5.06-0.44-9.59-1.12c-4.53-0.68-8.44-1.56-13.33-2.88
	c-1.63-0.52-3.17-1.09-4.61-1.7l-2.7,1.33c1.86,0.92,3.97,1.73,6.15,2.49c1.69,0.59,3.43,1.14,5.14,1.7
	c5.24,1.71,11.61,2.56,20.81,3.52C362.62,330.44,365,329.66,366.91,328.96z"/>
<path id="PA_Left" class="st24" d="M325.03,296.26c-0.35,0.23-0.68,0.46-1.01,0.68c-2.64,1.79-4.68,3.33-7.99,5.93l-1.54,1.19
	c1.68-2.52,1.21-3.92-2.09-2.88C316.42,299.84,320.56,298.28,325.03,296.26z"/>
<path id="OB_Left" class="st25" d="M163.23,237.49c0.03-0.35,0.83-1.43,2.13-1.99c1.3-0.55,3.28-1.08,5.04-1.27
	c1.66-0.18,4.1-0.59,5.28-0.73c1.32-0.16,6.68-1.08,7.98-0.73c1.08,0.29,1.16,1.66,1.23,2.85c0.16,2.64,0.55,3.69-0.98,4.79
	c-1.69,1.21-7.04,0.47-9.13,0.37c-2.03-0.1-1.44-0.06-3.83-0.27c-1.54-0.14-3.22-0.37-4.4-0.66c-0.93-0.23-1.72-0.42-2.42-0.77
	C163.47,238.72,163.17,238.28,163.23,237.49z"/>
<path id="LA_Left" class="st26" d="M303.87,309.6c1.94-1.38,4.19-2.18,7.15-2.77c-6.32,6-3.94,18.2-3.94,18.2
	c-1.34-0.93-3.28-2.13-7.74-6.85c-1.41-1.49-3.25-3.19-5.65-4.77l0-0.01c2.51-3.67,5.02-5.55,7.53-6.83h-0.02
	c0,0,1.62,1.65,2.65,3.01"/>
<path id="DG_Left" class="st27" d="M375.39,326.9c-0.89-0.3-1.8-0.6-2.71-0.92c-14.8-5.23-27.84-12.15-34.58-16.85
	c-3.85-2.69-8.76-7.1-12.17-11.7c-0.3-0.4-0.59-0.77-0.9-1.17c-0.23,2.96,2.37,8.83,7.85,13.08c4.54,3.52,10.23,6.93,16.51,9.98
	c2.9,1.41,4.95,2.24,7.99,3.41c5.01,1.93,9.08,2.78,12.1,3.28C371.64,326.38,373.51,326.62,375.39,326.9"/>
<path id="COX_Left" class="st28" d="M292.59,311.49c1.25-1.47,2.15-2.57,4.53-4.21c2.37-1.64,5.14-2.99,10.35-4.55
	c5.6-1.67,11.26-3.62,17.56-6.46c-5.48,2.47-12.54,3.98-21.86,5.36c-1.41,0.21-2.78,0.44-4.14,0.63
	C296.52,304.68,294.34,307.74,292.59,311.49z"/>
<path id="CA3_Left" class="st29" d="M324.02,296.94c0.1,3.28,0.19,4.66,0.44,6.54c0.26,1.9,0.95,4.83,2.67,7.76
	c1.73,2.94,4.23,5.09,8.28,7.08c4.06,1.99,8.02,3.1,14.15,5c5.61,1.74,14.8,3.73,23.46,3.63c0.87-0.01,1.55-0.06,2.37-0.06
	c-1.88-0.28-3.75-0.52-5.92-0.88c-3.01-0.5-7.09-1.35-12.1-3.28c-3.04-1.17-5.09-2-7.99-3.41c-6.27-3.05-11.96-6.46-16.51-9.98
	c-5.48-4.25-8.08-10.12-7.85-13.08C324.68,296.5,324.35,296.72,324.02,296.94z"/>
<path id="CA2_Left" class="st30" d="M336.96,319.27c-1.56-0.66-3.02-1.37-4.21-2.15c-2.16-1.42-4.28-3.01-5.44-5.05
	c-1.86-3.28-2.42-4.7-2.8-6.82c-0.39-2.11-0.52-3.47-0.52-4.85c0-1.38,0.07-2.09,0.04-3.45c0.1,3.28,0.19,4.66,0.44,6.54
	c0.26,1.9,0.95,4.83,2.67,7.76c1.73,2.94,4.23,5.09,8.28,7.08c4.06,1.99,8.02,3.1,14.15,5c5.61,1.74,14.8,3.73,23.46,3.63
	c0.87-0.01,1.55-0.06,2.37-0.06c-0.95,0-1.8,0.12-3.61,0.6c-4.96-0.43-8.41-0.85-12.72-1.67c-3.03-0.58-5.39-0.99-8.84-2.03
	c-3.45-1.04-6.43-1.94-9.36-3.02C339.54,320.3,338.22,319.8,336.96,319.27z"/>
<path id="CA1v_Left" class="st31" d="M336.96,319.27c-1.56-0.66-3.02-1.37-4.21-2.15c-2.16-1.42-4.28-3.01-5.44-5.05
	c-1.86-3.28-2.42-4.7-2.8-6.82c-0.39-2.11-0.52-3.47-0.52-4.85c0-1.38,0.07-2.09,0.04-3.45c-4.66,11.56-3.55,20.65,5.85,24.84
	c0.27,0.12,0.55,0.24,0.84,0.36L336.96,319.27z"/>
<path id="CA1d_Left" class="st32" d="M336.96,319.27c1.26,0.53,2.59,1.03,3.9,1.51c2.93,1.08,5.91,1.98,9.36,3.02
	c3.45,1.03,5.81,1.45,8.84,2.03c4.31,0.82,7.76,1.24,12.72,1.67c-1.51,0.17-3.09,0.29-4.67,0.37c-2.88,0.14-5.87,0.19-8.88-0.03
	c-1.08-0.08-5.06-0.44-9.59-1.12c-4.53-0.68-8.44-1.56-13.33-2.88c-1.63-0.52-3.17-1.09-4.61-1.7L336.96,319.27z"/>
<path id="BMA_Left" class="st33" d="M292.16,312.45c0.08-0.18,0.15-0.35,0.23-0.52c0.07-0.15,0.14-0.3,0.21-0.45
	c1.25-1.47,2.15-2.57,4.53-4.21c2.37-1.64,5.14-2.99,10.35-4.55c1.63-0.49,3.27-1,4.93-1.55c3.3-1.04,3.77,0.36,2.09,2.88
	c-0.53,0.4-1.09,0.83-1.68,1.29c4.47-5.66-4.64-1.65-8.26-0.23c-1.11,0.44-2.23,0.89-3.34,1.46c-2.51,1.28-5.02,3.15-7.53,6.83
	l0,0.01c-0.48-0.32-0.98-0.63-1.51-0.93"/>
<path id="BLA_Left" class="st34" d="M303.87,309.6c1.94-1.38,4.19-2.18,7.15-2.77c0.21-0.2,0.42-0.39,0.65-0.57
	c0.39-0.32,0.77-0.62,1.14-0.91c4.47-5.66-4.64-1.65-8.26-0.23c-1.11,0.44-2.23,0.89-3.34,1.46h-0.02c0,0,1.62,1.65,2.65,3.01"/>
<path id="AOA_Left" class="st35" d="M186.83,238.48c-1.79-0.78-0.56-6.31-2.39-6.63c-1.98-0.35-3.78,0.65-5.98,0.94
	c-4.42,0.59-8.57,1.22-9.32,1.35c-1.46,0.25-3.72,0.76-4.72,1.28c-1.06,0.55-1.44,0.82-2.59,1.27c-0.7,1.15,0.66,2.24,1.4,2.71
	c1.49,0.94,2.69,1.18,3.62,1.37c1.44,0.31,5.41,0.58,8.22,0.82C181.83,242.18,185.75,244.48,186.83,238.48z M183.92,240.4
	c-1.69,1.21-7.04,0.47-9.13,0.37c-2.03-0.1-1.44-0.06-3.83-0.27c-1.54-0.14-3.22-0.37-4.4-0.66c-0.93-0.23-1.72-0.42-2.42-0.77
	c-0.67-0.34-0.97-0.78-0.91-1.57c0.03-0.35,0.83-1.43,2.13-1.99c1.3-0.55,3.28-1.08,5.04-1.27c1.66-0.18,4.1-0.59,5.28-0.73
	c1.32-0.16,6.68-1.08,7.98-0.73c1.08,0.29,1.16,1.66,1.23,2.85C185.06,238.25,185.45,239.3,183.92,240.4z"/>
<path id="_x36_b_x2C__CLA_x2C__EP_Left" class="st36" d="M292.16,312.45c0.08-0.18,0.15-0.35,0.23-0.52
	c0.07-0.15,0.14-0.3,0.21-0.45c-1.42-0.86-3.24-1.7-5.57-2.48c-2.33-0.78-5.18-1.38-8.97-1.9c-4.22-0.57-7.94-1.03-17.52-3.15
	c-9.42-2.08-24.25-7.02-30.41-9.97c-5.87-2.8-11.27-6.2-15.83-9.32c-5.18-3.53-10.09-7.51-14.58-12.25
	c-4.49-4.74-7.16-8.62-9.57-12.94c-2.42-4.31-4.14-7.96-5.7-10.38c-1.55-2.41-2-3.94-3.72-5.06c-1.73-1.12-2.83-1.29-4.65-1.53
	c-1.84-0.24-4.38-0.45-5.93-0.73c-1.13-0.19-2.36-0.26-3.49-0.58c-1.05-0.3-5.67-1.6-5.46-4.27c-0.03,0.13-0.04,0.3-0.04,0.43
	c0,0.32,0.06,0.63,0.19,0.92c1.07,1.81,3.93,2.7,5.06,3.12c1.33,0.5,2.41,0.68,4.57,1.11c1.68,0.34,4.14,0.66,5.91,1.39
	c1.43,0.59,1.82,0.84,3.2,2.17c1.38,1.34,2.67,3.95,4.31,6.72c1.59,2.68,2.54,4.61,4.96,8.8c2.42,4.18,4.92,7.33,7.51,10.35
	c2.59,3.02,4.79,5.05,7.46,7.38c2.67,2.33,4.84,4.23,7.89,6.47c2.19,1.61,4.01,2.6,5.58,3.38c0.61,0.3,1.17,0.57,1.72,0.84
	c2.16,1.08,5.41,2.85,8.31,4.1c6.1,2.63,12.98,5.58,27.13,9.55c6.7,1.88,13.99,3.29,24.63,4.67c5.23,0.68,9.35,2.27,12.58,4.15"/>
<path id="_x35_2_Left" class="st37" d="M236,383.61c6.51,0.93,12.75,1.8,18.87,2.6c8.32,1.08,16.46,1.98,24.99,2.3
	c14.81,0.55,23.03,0,32.9,0c5.41,0,9.5,0.16,13.53,0.52c3.43,0.3,6.82,0.75,10.91,1.31c-5.39,0.46-10.99,0.75-16.49,0.78
	c-25.04,0.12-37.31,1.98-67.92-2.61c-1.71-0.26-3.46-0.54-5.29-0.84C247.51,387.66,242.22,385.72,236,383.61z"/>
<path id="_x35_1_Left" class="st38" d="M161.83,236.7c-0.7,1.15,0.66,2.24,1.4,2.71c1.49,0.94,2.69,1.18,3.62,1.37
	c1.44,0.31,5.41,0.58,8.22,0.82c6.75,0.58,10.68,2.88,11.76-3.12c0.64,4.54,1.67,8.56,3.1,12.97c2.71,8.33,10.14,18.92,18.64,26.05
	c8.5,7.13,17.55,11.24,28.79,15.63c11.24,4.39,22.75,7.4,35.91,9.05c10.36,1.3,17.16,1.13,24.12,0.3c0.54-0.06,1.08-0.14,1.62-0.22
	c-2.51,2.43-4.69,5.48-6.44,9.23c-1.42-0.86-3.24-1.7-5.57-2.48c-2.33-0.78-5.18-1.38-8.97-1.9c-4.22-0.57-7.94-1.03-17.52-3.15
	c-9.42-2.08-24.25-7.02-30.41-9.97c-5.87-2.8-11.27-6.2-15.83-9.32c-5.18-3.53-10.09-7.51-14.58-12.25
	c-4.49-4.74-7.16-8.62-9.57-12.94c-2.42-4.31-4.14-7.96-5.7-10.38c-1.55-2.41-2-3.94-3.72-5.06c-1.73-1.12-2.83-1.29-4.65-1.53
	c-1.84-0.24-4.38-0.45-5.93-0.73c-1.13-0.19-2.36-0.26-3.49-0.58c-1.05-0.3-5.67-1.6-5.46-4.27
	C161.43,236.86,161.64,236.78,161.83,236.7z"/>
<path id="_x34_9_Left" class="st39" d="M351.84,333.3c-8.66-2.03-15.11-3.28-20.35-5.41c-0.22-0.1-0.45-0.18-0.67-0.28
	c-4.83-1.98-7.67-3.34-10.03-5.18c-2.46-1.93-4.06-3.96-5.13-6.2c-1.03-2.17-1.62-5.09-1.83-8.3c-3.42,11,3.61,20.34,33.35,26.16
	C348.61,333.92,350.18,333.65,351.84,333.3z"/>
<path id="_x34_8_Left" class="st40" d="M334.15,325.97c1.69,0.59,3.43,1.14,5.14,1.7c5.24,1.71,11.61,2.56,20.81,3.52
	c-2.7,0.8-5.58,1.55-8.27,2.11c-8.66-2.03-15.11-3.28-20.35-5.41c-0.22-0.1-0.45-0.18-0.67-0.28L334.15,325.97z"/>
<path id="_x34_7_Left" class="st41" d="M123.21,256.83c16.52-2.81,32.31-8.88,42.78-15.04c-1.52-0.75-2.76-1.69-2.76-1.69
	c-1.03-0.31-3.06-0.04-8.94,1.25c-3.23,0.71-8.64,1.6-16.24,4.73c-2.24,0.92-6.37,3.73-10.73,7.26
	C125.96,254.44,124.56,255.64,123.21,256.83z"/>
<path id="_x34_6_Left" class="st42" d="M159.12,300.09c-0.82-25.23-5.34-45.31-41.26-38.18c-5.9,5.9-12.01,12.71-18.96,21.25
	c-0.33,0.4-0.63,0.79-0.95,1.19c2.15-1.47,5.76-2.38,8.62-2.57c16.56-1.06,37.19,5.37,52.57,18.51"/>
<path id="_x34_5_Left" class="st43" d="M159.16,300.3c7.78,6.64,14.22,15,18.12,24.98c3.84-12.7,4.93-27.17,3.2-40.68
	c-1.7-13.25-7.08-29.92-14.48-42.81c-10.47,6.17-26.26,12.23-42.78,15.04c-1.09,0.96-2.25,1.97-3.26,2.95
	c-0.71,0.69-1.37,1.41-2.09,2.12c35.92-7.13,40.44,12.96,41.26,38.18"/>
<path id="_x34_4_Left" class="st44" d="M177.28,325.28c1.86,4.75,3.1,10.13,3.68,15.6c2.2,0.37,4.4,0.74,6.6,1.12
	c-0.76-5.67-0.92-12.01-0.29-18.26c1.05-10.49,4.17-19.9,9.66-25.71c2.63-2.78,7.67-5.66,11.87-6.81c2.61-0.71,2.45-2.31-2.79-5.91
	c-7.08-4.86-15.8-15.2-20.71-23.16c-3.82-6.21-5.38-10.75-8.67-14.04c-3.29-3.29-6.44-4.98-8.7-5.6c-0.66-0.18-1.32-0.42-1.94-0.72
	c7.4,12.89,12.78,29.56,14.48,42.81C182.21,298.1,181.12,312.58,177.28,325.28z"/>
<path id="_x34_3_Left" class="st45" d="M216.23,383.92c-4.2-1.56-8.08-3.58-11.49-5.69c-3.5-2.15-6.64-5-9.32-8.45
	c-1.42-1.82-2.68-3.72-3.82-5.86c0.27-1.78,0.47-3.57,0.64-5.59c2.05,4.49,4.68,8.69,8.19,12.48c4.15,4.48,8.84,6.79,15.01,9.25
	c6.17,2.47,12.13,3.7,17.07,4.73c4.94,1.03,15.01,2.85,15.01,2.85c1.83,0.3,3.58,0.58,5.29,0.84c0,0.98-0.07,1.95-0.09,2.93
	c-6.43-0.8-11.67-1.68-16.24-2.59c-4.78-0.95-8.81-1.95-12.81-2.8C221.08,385.5,218.61,384.8,216.23,383.92z"/>
<path id="_x34_2_Left" class="st46" d="M326.29,389.03c-5.42-2.34-19.79-3.53-28.02-3.75c-8.22-0.22-14.8-0.39-24.67-0.66
	c-1.75-0.05-3.39-0.1-4.93-0.13c6.1-2.58,13.79-3.48,22.57-3.24c9.87,0.26,16.46-0.11,25.76,0.68c9.31,0.8,16.98,3.94,21.17,8.29
	c-0.35,0.03-0.64,0.08-0.99,0.11C333.11,389.78,329.72,389.33,326.29,389.03z"/>
<path id="_x34_1_Left" class="st47" d="M268.68,384.49c1.54,0.03,3.18,0.08,4.93,0.13c9.87,0.26,16.45,0.44,24.67,0.66
	c8.22,0.22,22.59,1.41,28.02,3.75c-4.03-0.36-8.12-0.52-13.53-0.52c-9.87,0-18.1,0.55-32.9,0c-8.53-0.31-16.67-1.21-24.99-2.3
	C256.73,384.46,261.54,384.34,268.68,384.49z"/>
<path id="_x34_0_Left" class="st48" d="M251.76,406.97c23.33,4.98,47.23,7.46,71.05,7.27c26.7-5.43,29.24-12.43,29.24-25.59
	c-4.45,0.63-9.1,1.14-13.86,1.57c-0.35,0.03-0.64,0.08-0.99,0.11c-5.39,0.46-10.99,0.75-16.49,0.78
	c-25.04,0.12-37.31,1.98-67.92-2.61c0,0.98-0.07,1.95-0.09,2.93C252.6,396.61,252.33,401.89,251.76,406.97z"/>
<path id="_x33_9_Left" class="st49" d="M322.81,414.24c26.7-5.43,29.24-12.43,29.24-25.59c7.19-1.02,13.87-2.29,19.62-3.49
	c12.17-2.52,20.23-4.88,20.23-4.88c0.57,0.4,1.11,0.8,1.68,1.2c2.42,1.67,4.11,4.49,5.34,7.78c1.33,3.55,5.33,6.61,10.51,5.91
	c5.31-0.71,8.64,0.26,12.67,1.44c1.34,0.39,2.65,0.85,4,1.25C390.85,408.5,356.66,413.97,322.81,414.24z"/>
<path id="_x33_8_Left" class="st50" d="M228.75,296.12c-1.44,6.31-3.52,12.7-6.2,18.86c-1.35,3.1-2.86,6.16-4.51,9.1
	c-1.02,1.82-2.18,3.6-3.46,5.32c-2.59,3.48-5.64,6.7-8.85,9.44c-4.27,3.65-8.99,6.52-13.13,8c-1.36-5.6-1.98-11.63-1.84-17.35
	c0.21-8.25,2.06-19.95,7.61-26.32c6.53-7.5,12.17-9.3,17.48-10.28c2.02-0.37,3.35-0.72,3.82-1.29
	C221.96,292.78,224.31,294.16,228.75,296.12z"/>
<path id="_x33_7_Left" class="st51" d="M352.3,341.97c0.18,0,0.26,0,0.26,0c10.83,14.91,23.56,27.24,39.34,38.32
	c0,0-8.05,2.35-20.23,4.88c-2.97-2.97-10.89-6.95-20.11-10.64c-4.19-1.68-9.13-3.14-14.27-4.27c-2.12-0.71-4.09-1.44-6.02-2.2
	c-6.17-3.29-11.38-11.22-15.08-16.98c-3.21-4.99-5.56-8.9-11.46-14.1c2.96,1.49,6.14,2.83,9.4,3.82c9.46,2.88,21.15,3.63,38.43,1.16
	"/>
<path id="_x33_6_Left" class="st52" d="M352.56,341.97c-17.27,2.47-28.97,1.71-38.43-1.16c-3.26-0.99-6.44-2.33-9.4-3.82
	c-5.63-2.84-10.54-6.23-14.04-8.92c-5.35-4.11-11.92-6.99-18.1-7.82c-6.17-0.82-18.75-4.27-29.2-6.99
	c-7.77-2.02-16.07-0.89-20.86,1.73c2.68-6.17,4.76-12.55,6.2-18.86c0.92,0.41,1.95,0.84,3.07,1.3c4.66,1.92,8.6,3.46,16.01,5.65
	c9.76,2.89,17.99,4.63,24.98,5.45c7.37,0.87,16.28,2.77,22,7.61c3.2,2.7,6.55,6.17,9.37,8.64c1.89,1.66,3.42,3.01,4.82,3.7
	c11.31,5.61,19.59,6.46,30.88,5.93c2.25,0.05,4.38-0.01,6.33-0.17c0.33-0.03,0.62-0.1,0.98-0.14
	C348.93,336.78,350.72,339.43,352.56,341.97z"/>
<path id="_x33_5_Left" class="st53" d="M219.84,291.08c-0.07-0.71-1.19-1.45-2.04-1.91c0.61,0.3,1.17,0.57,1.72,0.84
	c2.16,1.08,5.41,2.85,8.31,4.1c6.1,2.63,12.98,5.58,27.13,9.55c6.7,1.88,13.99,3.29,24.63,4.67c5.23,0.68,9.35,2.27,12.58,4.15
	c3.16,1.82,5.47,3.92,7.16,5.71c4.47,4.72,6.4,5.92,7.74,6.85c0,0,0.77,1.8,6.25,4.27c6.72,3.02,17.47,4.89,26.55,5.09
	c-11.29,0.54-19.57-0.32-30.88-5.93c-1.4-0.69-2.93-2.04-4.82-3.7c-2.81-2.47-6.17-5.93-9.37-8.64c-5.72-4.84-14.64-6.74-22-7.61
	c-6.99-0.82-15.23-2.56-24.98-5.45c-7.4-2.19-11.34-3.74-16.01-5.65c-1.12-0.46-2.14-0.9-3.07-1.3c-4.43-1.95-6.78-3.33-9.08-4.51
	C219.81,291.44,219.86,291.26,219.84,291.08z"/>
<path id="_x33_3_TT_Left" class="st54" d="M186.83,238.48c-1.79-0.78-0.56-6.31-2.39-6.63c-1.98-0.35-3.78,0.65-5.98,0.94
	c-4.42,0.59-8.57,1.22-9.32,1.35c-1.46,0.25-3.72,0.76-4.72,1.28c-1.06,0.55-1.44,0.82-2.59,1.27c-0.19,0.07-0.4,0.15-0.64,0.24
	c0.46-1.91,4.25-3.65,11.68-4.09c0.86-0.05,1.75-0.12,2.59-0.2c0.73-0.07,1.41-0.18,2.38-0.3c2.17-0.34,3.79-0.93,4.48-1.5
	c2.22-1.88,2.5-3.76,2.5-3.76h1.21c0.05,3.51,0.24,6.57,0.56,9.4C186.65,237.17,186.74,237.83,186.83,238.48z"/>
<path id="_x33_3_IG_x2C__rostral_end_Left" class="st55" d="M186.01,226.34l-78.17,0h-0.22c-0.81,0-4.47,0.2-8.59,0.97
	c-22.52,4.18-29.36,22.79-28.38,41.33c1.2,22.88,6.27,40.94,20.9,65.32c17.02,28.37,41.8,52.25,78.38,73.16
	c36.58,20.9,76.63,35.1,121.06,34.84c44.8-0.26,88.73-7.32,125.43-20.03c26.59-9.22,46.88-23.23,65.32-40.93
	c10.91-10.47,14.65-27.01,10.45-44.42c-4.11-17.03-12.7-25.7-27.87-18.29c-7.83,3.83-16.93,8.83-24.6,11.77
	c-4.06,1.56-8.97,2.87-14.18,3.66l0.13,1.05c1.42-0.22,2.83-0.49,4.22-0.81c9.31-2.11,19.12-6.95,27.57-11.18
	c8.44-4.22,14.28-6.7,18.5-6.21c4.22,0.5,8.06,3.59,10.43,7.95c3.85,7.07,5.84,13.28,6.33,21.61c0.2,3.31,0.22,6.64-0.16,10.03
	c-0.58,5.13-2.09,10.39-5.3,15.92c-5.34,9.19-9.64,11.88-18.38,18.88c-11.18,8.94-22.6,16.64-33.9,22.23
	c-11.3,5.59-23.47,9.56-38.5,13.78c-15.03,4.22-30.18,7.2-48.56,9.69c-18.38,2.48-29.68,3.23-40.48,3.85
	c-10.8,0.62-22.1,0.62-33.53-0.25c-11.42-0.87-24.71-2.98-36.63-6.08c-11.92-3.11-26.94-8.32-38.74-13.53
	c-11.8-5.22-23.59-11.55-35.02-18.38c-2.65-1.59-5.44-3.31-8.4-5.24c-3.67-2.4-7.61-5.12-11.85-8.29c-2.31-1.72-4.7-3.58-7.2-5.59
	c-10.18-8.19-17.14-14.9-23.35-21.86c-6.21-6.95-12.54-15.4-17.76-23.34c-5.21-7.95-8.82-14.78-12.17-22.23
	c-3.35-7.45-6.71-16.64-8.19-22.97c-1.49-6.33-2.48-13.66-3.1-20.49c-0.62-6.83,0.12-15.15,1.24-19.74
	c1.12-4.59,3.25-9.29,6.58-13.29c3.8-4.56,7.71-7.13,12.55-9.12c4.84-1.99,11.48-3.04,18.06-3.04c6.58,0,14.9,0.03,25.58,0.03
	c3.57,0,8.22,0,13.09,0c7.51,0,18.93-0.02,23.61-0.02c4.69,0,9.11,0.02,13.8,0.02L186.01,226.34z"/>
<path id="_x33_2_Left" class="st56" d="M103.23,232.64c-6.13,0.82-11.87,2.44-16.38,6.17c-6.31,5.21-10.69,13.71-11.79,23.03
	c-0.7,5.94-0.29,12.44,0.82,18.78c0.63,3.61,1.48,7.17,2.47,10.55c1.91,6.51,3.68,12.61,6.45,19.54c1.2,2.99,2.57,6.1,4.24,9.52
	c2.05,4.2,4.16,7.95,6.34,11.49c3.67,5.94,7.59,11.24,12.03,16.75c0.39,0.49,0.8,0.94,1.21,1.43c7.93,9.48,19.35,19.84,30.04,28.17
	c6.78,5.29,12.37,9.59,20.36,14.69c-0.48,0.57-1.23,1.39-1.87,2.05c-0.73,0.77-1.48,1.52-2.04,2.18c-3.67-2.4-7.61-5.12-11.85-8.29
	c-0.19-2.95-9.94-10.12-18.11-18.1c-9.05-8.84-19.95-20.15-27.14-31.05c-7.2-10.9-16.17-27.58-20.36-42.57
	c-3.91-13.98-8.02-31.46-1.85-46.88c6.17-15.42,16.89-18.72,25.29-19.95c8.43-1.23,17.07-1.23,24.06-1.23c6.99,0,23.44,0,23.44,0
	c0,0.83-0.01,1.59-0.01,2.46c-18.1,0-29.12,0-37.9,0.55C108.2,232.12,105.67,232.32,103.23,232.64z"/>
<path id="_x33_1_Left" class="st57" d="M480.21,372.08c0.37-0.5,0.69-1,1.04-1.52c4.29-6.32,5.47-12.42,5.08-20.37
	c-0.08-1.7-0.2-3.52-0.42-5.41c-0.09-0.76-0.15-1.48-0.24-2.15c4.39-1.1,5.31,15.44,0.37,25.32c-4.93,9.87-21.38,24.67-41.67,36.19
	c-20.29,11.51-50.86,22.73-83.91,27.96c-32.94,5.22-63.61,6.58-84.44,5.49c-20.84-1.1-46.61-7.68-63.06-13.71
	c-16.45-6.03-41.01-19.18-55.81-29.05c0.63-0.66,1.39-1.48,1.87-2.05c5.27,3.36,11.56,7.06,19.94,11.63
	c2.74,1.49,5.32,2.86,7.78,4.18c6.07,3.26,11.45,6.07,16.97,8.56c6.41,2.9,13,5.42,21.01,7.76c3.85,1.12,7.99,2.27,12.65,3.34
	c3.43,0.8,6.73,1.46,9.88,2.09c4.6,0.93,8.9,1.76,13.09,2.39c14.68,2.2,27.72,2.66,44.75,2.1c25.22-0.82,43.05-2.74,65.8-7.68
	c22.76-4.94,32.63-7.96,47.17-13.71c13.16-5.21,17.68-7.27,23.44-11.1c0,0,11.65-6.86,19.88-12.89
	C469.03,383.86,475.32,378.75,480.21,372.08z"/>
<path id="_x33_0_Left" class="st58" d="M477.14,324.78c-2.83-2.2-6.32-2.83-10.83-0.83c-4.48,1.99-9.95,5.42-18.23,8.64
	c-9.13,3.55-18.65,6.37-26.32,6.99c-11.51,0.94-21.19-1.28-30.58-3.16c-10.97-2.19-19.33-3.29-26.46-3.15
	c-7.13,0.14-17.53,0.82-17.53,0.82c1.42-0.17,3-0.44,4.65-0.79c2.68-0.56,5.56-1.31,8.27-2.11c2.52-0.74,4.89-1.53,6.8-2.23v0.01
	c9.97,1.88,19.85,3.86,30.21,5.93c10.35,2.07,20.89,2.44,29.55,1.13c8.66-1.32,19.07-5.59,25.21-8.66
	c8.09-4.05,12.62-5.9,16.28-7.15c4.14-1.41,8-1.51,10.54-0.1c2.54,1.41,5.36,3.95,7.43,7.53c2.07,3.58,4.33,8.84,5.27,13.45
	c0.94,4.61,1.16,9.79,1.16,15.06c-1.44-16.88-6.44-27.21-14.68-30.78"/>
<path id="_x32_9_Left" class="st59" d="M366.91,328.96c0.08-0.03,0.15-0.06,0.23-0.08c1.65-0.61,3.05-1.23,4.64-1.38
	c1.12-0.11,2.35,0.03,3.8,0.55c4,1.44,13.34,4.02,22.38,5.66c10.98,2.01,19.63,2.31,27.69,1.06c1.42-0.22,2.83-0.49,4.22-0.81
	c9.31-2.11,19.12-6.95,27.57-11.18c8.44-4.22,14.28-6.7,18.5-6.21c4.22,0.5,8.06,3.59,10.43,7.95c3.85,7.07,5.84,13.28,6.33,21.61
	c0.2,3.31,0.22,6.64-0.16,10.03c0-5.27-0.22-10.45-1.16-15.06c-0.94-4.61-3.2-9.88-5.27-13.45c-2.07-3.57-4.89-6.12-7.43-7.53
	c-2.54-1.41-6.4-1.32-10.54,0.1c-3.66,1.25-8.18,3.1-16.28,7.15c-6.14,3.07-16.56,7.34-25.21,8.66c-8.65,1.32-19.2,0.94-29.55-1.13
	c-10.35-2.07-20.23-4.05-30.21-5.93"/>
<path id="_x32_8_x2C__34__x28_ENT_x29___x28_ENTm_x29__Left" class="st60" d="M316.04,302.89c-1.21,2.19-1.85,3.93-2.2,5.05
	c-3.42,11,3.61,20.34,33.35,26.16c-8.53-0.81-13.04-1.23-18.11-2.55c-4.29-1.11-7.62-2.22-10.73-3.63
	c-3.11-1.41-5.48-2.89-6.66-4.44c-0.49-0.72-0.47-0.68-0.79-1.24l-0.45-1.09l-0.33-1.17c-0.49-3.64-0.29-3.74-0.04-6.14
	C310.55,309.11,314.62,304.25,316.04,302.89"/>
<path id="_x32_8_x2C__34__x28_ENT_x29___x28_ENTl_x29__Left" class="st61" d="M316.03,302.87l-1.54,1.19
	c-0.53,0.4-1.09,0.83-1.68,1.29c-0.37,0.29-0.75,0.59-1.14,0.91c-0.23,0.18-0.44,0.37-0.65,0.57c-6.32,6-3.94,18.2-3.94,18.2
	s0.77,1.8,6.25,4.27c6.72,3.02,17.47,4.89,26.55,5.09c2.25,0.05,4.38-0.01,6.33-0.17c0.33-0.03,0.62-0.1,0.98-0.14
	c-8.53-0.81-13.04-1.23-18.11-2.55c-4.29-1.11-7.62-2.22-10.73-3.63c-3.11-1.41-5.48-2.89-6.66-4.44c-0.49-0.72-0.47-0.68-0.79-1.24
	l-0.45-1.09l-0.33-1.17c-0.49-3.64-0.29-3.74-0.04-6.14c0.48-4.72,4.55-9.59,5.98-10.95"/>
<path id="_x32_7_Left" class="st62" d="M328,323.48c-1.11-0.56-2.14-1.15-3.03-1.8c-3.53-2.57-5.49-5.29-5.99-8.34
	c-0.75-4.59-2.05-8.19-5.15-5.41c0.21,3.21,0.8,6.13,1.83,8.3c1.07,2.24,2.67,4.28,5.13,6.2c2.36,1.84,5.2,3.19,10.03,5.18
	l3.33-1.64C331.96,325.21,329.86,324.4,328,323.48z"/>
<path id="_x32_6_Left" class="st63" d="M375.39,326.9c13.62,4.57,25.11,6.64,34.92,7.44c5.06,0.41,10.28,0.13,15.22-0.62l0.13,1.05
	c-8.06,1.25-16.71,0.95-27.69-1.06c-9.04-1.65-18.39-4.22-22.38-5.66c-1.44-0.52-2.67-0.66-3.8-0.55
	C373.6,327.02,374.44,326.9,375.39,326.9"/>
<path id="_x32_5_Left" class="st64" d="M175.46,232.65c-0.84,0.08-1.73,0.15-2.59,0.2c-7.43,0.44-11.22,2.18-11.68,4.09
	c-0.53-2.13-1.4-3.63-3.88-4.27c-0.39-0.1-0.83-0.18-1.3-0.24c-3.5-0.41-7.41-1.03-7.41-1.03c0-0.87,0.01-1.64,0.01-2.46
	c0-0.54,0-1.21,0-1.86h36.2c0,0-0.28,1.88-2.5,3.76c-0.68,0.58-2.31,1.17-4.48,1.5"/>
<path id="_x32_4_Left" class="st65" d="M143.27,388.72c-2.31-1.72-4.7-3.58-7.2-5.59c-10.18-8.19-17.14-14.9-23.35-21.86
	c-6.21-6.95-12.54-15.4-17.76-23.34c-5.21-7.95-8.82-14.78-12.17-22.23c-3.35-7.45-6.71-16.64-8.19-22.97
	c-1.49-6.33-2.48-13.66-3.1-20.49c-0.62-6.83,0.12-15.15,1.24-19.74c1.12-4.59,3.25-9.29,6.58-13.29c3.8-4.56,7.71-7.13,12.55-9.12
	c4.84-1.99,11.48-3.04,18.06-3.04c6.58,0,14.9,0.03,25.58,0.03c3.57,0,8.22,0,13.09,0c0,0.65,0,1.32,0,1.86c0,0-16.45,0-23.44,0
	c-6.99,0-15.63,0-24.06,1.23c-8.4,1.23-19.12,4.52-25.29,19.95c-6.17,15.42-2.06,32.9,1.85,46.88
	c4.19,14.99,13.16,31.67,20.36,42.57c7.2,10.9,18.09,22.2,27.14,31.05C133.33,378.6,143.08,385.78,143.27,388.72z"/>
<path id="_x32_3_Left" class="st66" d="M482.98,332.46c-0.8-1.65-1.72-3.04-2.96-4.68c-0.67-0.9-1.4-1.71-2.15-2.4
	c8.24,3.57,13.24,13.9,14.68,30.78c-0.58,5.13-2.09,10.39-5.3,15.92c-5.34,9.19-9.64,11.88-18.38,18.88
	c-11.18,8.94-22.6,16.64-33.9,22.23c-11.3,5.59-23.47,9.56-38.5,13.78c-15.03,4.22-30.18,7.2-48.56,9.69
	c-18.38,2.48-29.68,3.23-40.48,3.85c-10.8,0.62-22.1,0.62-33.53-0.25c-11.42-0.87-24.71-2.98-36.63-6.08
	c-11.92-3.11-26.94-8.32-38.74-13.53c-11.8-5.22-23.59-11.55-35.02-18.38c-2.65-1.59-5.44-3.31-8.4-5.24
	c0.55-0.66,1.3-1.41,2.04-2.18c14.81,9.87,39.36,23.02,55.81,29.05c16.45,6.03,42.22,12.61,63.06,13.71
	c20.84,1.1,51.5-0.27,84.44-5.49c33.05-5.23,63.62-16.45,83.91-27.96c20.29-11.52,36.74-26.32,41.67-36.19
	c4.94-9.87,4.01-26.41-0.37-25.32C485.01,337.79,484.15,334.87,482.98,332.46z"/>
<path id="_x32_2_Left" class="st67" d="M205.72,338.85c2.06,14.4,10.5,26.77,24.93,27.87c9.89,0.75,33.28,1.23,44.01,1.23
	c11.1,0,30,0.4,40.72,0c6.58-0.25,14.46,0.67,21.92,2.31c5.14,1.13,10.08,2.59,14.27,4.27c9.23,3.69,17.15,7.67,20.11,10.64
	c-5.75,1.19-12.43,2.46-19.62,3.49c-4.45,0.63-9.1,1.14-13.86,1.57c-4.19-4.35-11.87-7.5-21.17-8.29
	c-9.3-0.79-15.89-0.42-25.76-0.68c-8.79-0.23-16.47,0.67-22.57,3.24c-7.14-0.16-11.95-0.04-13.8,1.72
	c-6.13-0.8-12.36-1.67-18.87-2.6c-2.07-0.7-4.27-1.42-6.38-2.09c-8.43-2.68-14.81-5.35-20.77-9.46c-5.96-4.11-9.71-8.46-13.16-16.04
	c-1.28-2.81-2.31-5.93-3.1-9.18C196.73,345.37,201.45,342.49,205.72,338.85z"/>
<path id="_x32_1_Left" class="st68" d="M337.29,370.26c-7.46-1.64-15.35-2.56-21.92-2.31c-10.72,0.4-29.61,0-40.72,0
	c-10.72,0-34.12-0.48-44.01-1.23c-14.42-1.1-22.87-13.48-24.93-27.87c3.21-2.74,6.26-5.96,8.85-9.44c3.7,9.87,8.67,18.4,20.6,20.86
	c9.96,2.06,25.09,2.06,42.36,2.88c17.27,0.82,27.34,1.92,35.37,6.17c5.49,2.9,11.35,5.98,18.37,8.75"/>
<path id="_x32_0_Left" class="st69" d="M222.54,314.98c4.78-2.62,13.08-3.75,20.86-1.73c10.45,2.72,23.03,6.17,29.2,6.99
	c6.17,0.83,12.75,3.7,18.1,7.82c3.5,2.69,8.41,6.09,14.04,8.92c5.9,5.21,8.25,9.12,11.46,14.1c3.7,5.76,8.91,13.69,15.08,16.98
	c-7.02-2.77-12.89-5.85-18.37-8.75c-8.03-4.25-18.1-5.35-35.37-6.17c-17.27-0.82-32.4-0.82-42.36-2.88
	c-11.93-2.47-16.9-10.99-20.6-20.86c1.28-1.72,2.44-3.5,3.46-5.32C219.69,321.14,221.19,318.08,222.54,314.98z"/>
<path id="_x31_9_Left" class="st70" d="M352.3,341.97c0.18,0,0.26,0,0.26,0c10.83,14.91,23.56,27.24,39.34,38.32
	c0.57,0.4,1.11,0.8,1.68,1.2c2.42,1.67,4.11,4.49,5.34,7.78c1.33,3.55,5.33,6.61,10.51,5.91c5.31-0.71,8.64,0.26,12.67,1.44
	c1.34,0.39,2.65,0.85,4,1.25c4.92,1.46,9.98,2.91,15.39,4.49c0,0,11.65-6.86,19.88-12.89c7.65-5.61,13.94-10.72,18.84-17.39
	c-7.88,5.88-13.7,9.6-19.25,11.5c-8.25,2.82-20.56,4.93-31.67,2.47c-11.1-2.47-22.21-9.05-33.32-16.86
	c-11.11-7.82-16.87-18.51-14.4-22.21c2.47-3.7,13.99-1.64,22.22,0c8.23,1.65,23.44,0.83,36.19-0.82
	c12.75-1.65,25.67-8.6,37.18-21.35l-0.03-0.03c-2.83-2.2-6.32-2.83-10.83-0.83c-4.48,1.99-9.95,5.42-18.23,8.64
	c-9.13,3.55-18.65,6.37-26.32,6.99c-11.51,0.94-21.19-1.28-30.58-3.16c-10.97-2.19-19.33-3.29-26.46-3.15
	c-7.13,0.14-17.53,0.82-17.53,0.82c1.74,2.69,3.53,5.34,5.37,7.88"/>
<path id="_x31_8_Left" class="st71" d="M477.18,324.81c-11.51,12.75-24.43,19.7-37.18,21.35c-12.75,1.64-27.96,2.47-36.19,0.82
	c-8.23-1.64-19.75-3.7-22.22,0c-2.47,3.7,3.29,14.4,14.4,22.21c11.11,7.81,22.22,14.4,33.32,16.86c11.1,2.46,23.42,0.36,31.67-2.47
	c5.55-1.9,11.36-5.62,19.25-11.5c0.37-0.5,0.69-1,1.04-1.52c4.29-6.32,5.47-12.42,5.08-20.37c-6.51,8.95-15.87,18.36-27.84,22.69
	c-12.4,4.5-25.13,3.59-33.29,0.32c-24.43-9.79-26.16-20.05-8.65-15.53c7.32,1.89,22.17,2.7,34.96,0
	c12.5-2.63,21.45-10.83,31.47-25.2c-0.8-1.65-1.72-3.04-2.96-4.68c-0.67-0.9-1.4-1.71-2.15-2.4"/>
<path id="_x31_7_Left" class="st72" d="M482.98,332.46c-10.02,14.38-18.97,22.57-31.47,25.2c-12.79,2.7-27.64,1.89-34.96,0
	c-17.51-4.52-15.77,5.74,8.65,15.53c8.16,3.27,20.89,4.18,33.29-0.32c11.97-4.34,21.33-13.75,27.84-22.69
	c-0.08-1.7-0.2-3.52-0.42-5.41c-0.09-0.76-0.15-1.48-0.24-2.15C485.01,337.79,484.15,334.87,482.98,332.46z"/>
<path id="_x31_3-16__x28_INS_x29__Left" class="st73" d="M192.23,358.34c-0.95-2.09-1.79-4.22-2.51-6.43
	c-0.92-2.84-1.68-6.26-2.17-9.92c-0.76-5.67-0.92-12.01-0.29-18.26c1.05-10.49,4.17-19.9,9.66-25.71c2.63-2.78,7.67-5.66,11.87-6.81
	c2.61-0.71,2.45-2.31-2.79-5.91c-7.08-4.86-15.8-15.2-20.71-23.16c-3.82-6.21-5.38-10.75-8.67-14.04c-3.29-3.29-6.44-4.98-8.7-5.6
	c-0.66-0.18-1.32-0.42-1.94-0.72c-1.52-0.75-2.76-1.69-2.76-1.69c-0.97-0.56-1.6-1.15-1.89-1.81c1.07,1.81,3.93,2.7,5.06,3.12
	c1.33,0.5,2.41,0.68,4.57,1.11c1.68,0.34,4.14,0.66,5.91,1.39c1.43,0.59,1.82,0.84,3.2,2.17c1.38,1.34,2.67,3.95,4.31,6.72
	c1.59,2.68,2.54,4.61,4.96,8.8c2.42,4.18,4.92,7.33,7.51,10.35c2.59,3.02,4.79,5.05,7.46,7.38c2.67,2.33,4.84,4.23,7.89,6.47
	c2.19,1.61,4.01,2.6,5.58,3.38c0.86,0.45,1.97,1.2,2.04,1.91c0.02,0.18-0.03,0.36-0.18,0.53c-0.47,0.57-1.8,0.92-3.82,1.29
	c-5.31,0.98-10.95,2.78-17.48,10.28c-5.55,6.37-7.4,18.07-7.61,26.32c-0.14,5.72,0.48,11.75,1.84,17.35
	c0.79,3.25,1.82,6.37,3.1,9.18c3.45,7.59,7.2,11.93,13.16,16.04c5.96,4.11,12.34,6.78,20.77,9.46c2.11,0.67,4.31,1.39,6.38,2.09
	c6.22,2.1,11.5,4.05,11.5,4.05s-10.07-1.82-15.01-2.85c-4.93-1.03-10.9-2.26-17.07-4.73c-6.17-2.47-10.86-4.77-15.01-9.25
	C196.91,367.04,194.28,362.84,192.23,358.34z"/>
<path id="_x31_2_Left" class="st74" d="M157.31,232.68c-0.39-0.1-0.83-0.18-1.3-0.24c-3.5-0.41-7.41-1.03-7.41-1.03
	c-18.1,0-29.12,0-37.9,0.55c-2.5,0.15-5.03,0.35-7.47,0.68c-6.13,0.82-11.87,2.44-16.38,6.17c-6.31,5.21-10.69,13.71-11.79,23.03
	c-0.7,5.94-0.29,12.44,0.82,18.78c2.62-17.22,7.9-30.95,21.24-38.36c4.25-2.36,10.33-4.27,17-5.69c6.13-1.31,12.76-2.2,18.94-2.63
	C139.79,233.47,149.32,233.13,157.31,232.68z"/>
<path id="_x31_1_Left" class="st75" d="M161.19,236.94c-0.03,0.13-0.04,0.3-0.04,0.43c0,1.05,0.69,1.91,2.09,2.72
	c-1.03-0.31-3.06-0.04-8.94,1.25c-3.23,0.71-8.64,1.6-16.24,4.73c-2.24,0.92-6.37,3.73-10.73,7.26c-2.14-3.43-4.19-6.28-6.13-9.02
	c-1.81-2.56-4.8-5.85-7.07-7.75c6.13-1.31,12.76-2.2,18.94-2.63c6.74-0.48,16.28-0.81,24.26-1.27
	C159.79,233.31,160.66,234.81,161.19,236.94z"/>
<path id="_x31_0_Left" class="st76" d="M84.8,310.72c0,0,1.89-11.98,13.17-26.37c0.31-0.4,0.62-0.79,0.95-1.19
	c6.94-8.54,13.06-15.35,18.96-21.25c0.71-0.71,1.38-1.43,2.09-2.12c1.01-0.98,2.17-1.99,3.26-2.95c1.35-1.19,2.74-2.4,4.1-3.5
	c-2.14-3.43-4.19-6.28-6.13-9.02c-1.81-2.56-4.8-5.85-7.07-7.75c-6.67,1.42-12.75,3.33-17,5.69c-13.35,7.41-18.62,21.14-21.24,38.36
	c0.63,3.61,1.48,7.17,2.47,10.55C80.26,297.69,82.03,303.8,84.8,310.72z"/>
<path id="_x39__Left" class="st77" d="M160.15,337.72c-9.97-24.37-49.28-41.22-64.77-5.99c-2.18-3.54-4.29-7.29-6.34-11.49
	c-1.67-3.42-3.05-6.53-4.24-9.52c0,0,1.89-11.98,13.17-26.37c2.15-1.47,5.76-2.38,8.62-2.57c16.56-1.06,37.19,5.37,52.57,18.51
	c7.78,6.64,14.22,15,18.12,24.98c1.86,4.75,3.1,10.13,3.68,15.6c-6.99-1.17-14-2.27-20.79-3.03"/>
<path id="_x38__Left" class="st78" d="M160.17,337.85c-21.98-2.47-41.73-1.43-51.54,12.07c-0.41-0.49-0.82-0.95-1.21-1.43
	c-4.44-5.52-8.36-10.82-12.03-16.75c15.49-35.23,54.8-18.37,64.77,5.99"/>
<path id="_x37__Left" class="st79" d="M260.34,432.74c5.43-2.17,10.5-6.02,13.63-11.17c3.15-5.16-4.06-7.22-22.98-8.73
	c0.29-1.95,0.54-3.88,0.77-5.89c23.33,4.98,47.23,7.46,71.05,7.27c33.85-0.27,68.04-5.74,103.29-16.37
	c4.92,1.46,9.98,2.91,15.39,4.49c-5.76,3.84-10.28,5.89-23.44,11.1c-14.54,5.75-24.41,8.77-47.17,13.71
	c-22.75,4.93-40.58,6.85-65.8,7.68C288.06,435.4,275.02,434.95,260.34,432.74z"/>
<path id="_x36__Left" class="st80" d="M191.6,363.93c0.27-1.78,0.47-3.57,0.64-5.59c-0.95-2.09-1.79-4.22-2.51-6.43
	c-0.92-2.84-1.68-6.26-2.17-9.92c-2.19-0.37-4.4-0.75-6.6-1.12c-6.99-1.17-14-2.27-20.79-3.03c-21.98-2.47-41.73-1.43-51.54,12.07
	c7.93,9.48,19.35,19.84,30.04,28.17c6.78,5.29,12.37,9.59,20.36,14.69C177.24,390.51,188.33,385.3,191.6,363.93z"/>
<path id="_x35__Left" class="st81" d="M251,412.85c18.92,1.5,26.13,3.57,22.98,8.73c-3.14,5.14-8.21,9-13.63,11.17
	c-4.2-0.63-8.5-1.45-13.09-2.39C248.72,425.2,250.05,419.2,251,412.85z"/>
<path id="_x34__Left" class="st82" d="M191.6,363.93c-3.27,21.37-14.36,26.58-32.58,28.85c5.27,3.36,11.56,7.06,19.94,11.63
	c2.74,1.49,5.32,2.86,7.78,4.18c0,0,3.56-5.35,6.21-15.42c2.26-8.62,2.47-23.39,2.47-23.39C194,367.96,192.74,366.07,191.6,363.93z"
	/>
<path id="_x33__Left" class="st83" d="M216.23,383.92c-2.47,11.52-7.58,22.56-12.52,33.25c-5.51-2.49-10.9-5.31-16.97-8.56
	c0,0,3.56-5.35,6.21-15.42c2.26-8.62,2.47-23.39,2.47-23.39c2.68,3.44,5.82,6.29,9.32,8.45
	C208.16,380.33,212.03,382.36,216.23,383.92z"/>
<path id="_x32__Left" class="st84" d="M236.46,388.84c-2.05,10.69-6.81,24.57-11.75,36.08c3.85,1.12,7.99,2.27,12.65,3.34
	c3.43,0.8,6.73,1.46,9.88,2.09c1.48-5.16,2.81-11.16,3.75-17.51c0.29-1.95,0.54-3.88,0.77-5.89c0.57-5.07,0.84-10.36,0.94-15.53
	C246.27,390.63,241.03,389.76,236.46,388.84z"/>
<path id="_x31__Left" class="st85" d="M236.46,388.84c-2.05,10.69-6.81,24.57-11.75,36.08c-8.01-2.34-14.59-4.86-21.01-7.76
	c4.94-10.69,10.05-21.73,12.52-33.25c2.38,0.88,4.85,1.59,7.43,2.13C227.65,386.89,231.69,387.89,236.46,388.84z"/>
<path id="SUBv_Right" class="st86" d="M316.03,149.8c3.31,2.6,5.36,4.14,7.99,5.93c-4.66-11.56-3.55-20.65,5.85-24.84
	c0.27-0.12,0.55-0.24,0.84-0.36l-2.7-1.33c-1.11,0.56-2.14,1.15-3.03,1.8c-3.53,2.57-5.49,5.29-5.99,8.34
	c-0.75,4.59-2.05,8.19-5.15,5.41c0.35,1.12,1,2.86,2.2,5.05"/>
<path id="SUBd_Right" class="st87" d="M366.91,123.71c0.08,0.03,0.15,0.06,0.23,0.08c1.65,0.61,3.05,1.23,4.64,1.38
	c-1.51-0.17-3.09-0.29-4.67-0.37c-2.88-0.14-5.87-0.19-8.88,0.03c-1.08,0.08-5.06,0.44-9.59,1.12c-4.53,0.68-8.44,1.56-13.33,2.87
	c-1.63,0.52-3.17,1.09-4.61,1.7l-2.7-1.33c1.86-0.92,3.97-1.73,6.15-2.49c1.69-0.59,3.43-1.14,5.14-1.7
	c5.24-1.71,11.61-2.56,20.81-3.52C362.62,122.23,365,123.01,366.91,123.71z"/>
<path id="PA_Right" class="st88" d="M325.03,156.41c-0.35-0.23-0.68-0.46-1.01-0.68c-2.64-1.79-4.68-3.33-7.99-5.93l-1.54-1.19
	c1.68,2.52,1.21,3.92-2.09,2.88C316.42,152.83,320.56,154.4,325.03,156.41z"/>
<path id="OB_Right" class="st89" d="M163.23,215.19c0.03,0.35,0.83,1.43,2.13,1.99c1.3,0.55,3.28,1.08,5.04,1.27
	c1.66,0.18,4.1,0.59,5.28,0.73c1.32,0.16,6.68,1.08,7.98,0.73c1.08-0.29,1.16-1.66,1.23-2.85c0.16-2.64,0.55-3.69-0.98-4.79
	c-1.69-1.21-7.04-0.47-9.13-0.37c-2.03,0.1-1.44,0.06-3.83,0.27c-1.54,0.14-3.22,0.37-4.4,0.66c-0.93,0.23-1.72,0.42-2.42,0.77
	C163.47,213.95,163.17,214.4,163.23,215.19z"/>
<path id="LA_Right" class="st90" d="M303.87,143.07c1.94,1.38,4.19,2.18,7.15,2.77c-6.32-6-3.94-18.2-3.94-18.2
	c-1.34,0.93-3.28,2.13-7.74,6.85c-1.41,1.49-3.25,3.19-5.65,4.77l0,0.01c2.51,3.67,5.02,5.55,7.53,6.83h-0.02
	c0,0,1.62-1.65,2.65-3.01"/>
<path id="DG_Right" class="st91" d="M375.39,125.77c-0.89,0.3-1.8,0.6-2.71,0.92c-14.8,5.23-27.84,12.15-34.58,16.85
	c-3.85,2.69-8.76,7.1-12.17,11.7c-0.3,0.4-0.59,0.77-0.9,1.17c-0.23-2.96,2.37-8.83,7.85-13.08c4.54-3.52,10.23-6.93,16.51-9.98
	c2.9-1.41,4.95-2.24,7.99-3.41c5.01-1.93,9.08-2.78,12.1-3.28C371.64,126.3,373.51,126.05,375.39,125.77"/>
<path id="COX_Right" class="st92" d="M292.59,141.19c1.25,1.47,2.15,2.57,4.53,4.21c2.37,1.64,5.14,2.99,10.35,4.55
	c5.6,1.67,11.26,3.62,17.56,6.46c-5.48-2.47-12.54-3.98-21.86-5.36c-1.41-0.21-2.78-0.44-4.14-0.63
	C296.52,147.99,294.34,144.94,292.59,141.19z"/>
<path id="CA3_Right" class="st93" d="M324.02,155.73c0.1-3.28,0.19-4.66,0.44-6.54c0.26-1.9,0.95-4.83,2.67-7.76
	c1.73-2.94,4.23-5.09,8.28-7.08c4.06-1.99,8.02-3.1,14.15-5c5.61-1.74,14.8-3.73,23.46-3.63c0.87,0.01,1.55,0.06,2.37,0.06
	c-1.88,0.28-3.75,0.52-5.92,0.88c-3.01,0.5-7.09,1.35-12.1,3.28c-3.04,1.17-5.09,2-7.99,3.41c-6.27,3.05-11.96,6.46-16.51,9.98
	c-5.48,4.25-8.08,10.12-7.85,13.08C324.68,156.18,324.35,155.95,324.02,155.73z"/>
<path id="CA2_Right" class="st94" d="M336.96,133.41c-1.56,0.66-3.02,1.37-4.21,2.15c-2.16,1.42-4.28,3.01-5.44,5.05
	c-1.86,3.28-2.42,4.7-2.8,6.82c-0.39,2.11-0.52,3.47-0.52,4.85c0,1.38,0.07,2.09,0.04,3.45c0.1-3.28,0.19-4.66,0.44-6.54
	c0.26-1.9,0.95-4.83,2.67-7.76c1.73-2.94,4.23-5.09,8.28-7.08c4.06-1.99,8.02-3.1,14.15-5c5.61-1.74,14.8-3.73,23.46-3.63
	c0.87,0.01,1.55,0.06,2.37,0.06c-0.95,0-1.8-0.12-3.61-0.6c-4.96,0.43-8.41,0.85-12.72,1.67c-3.03,0.58-5.39,0.99-8.84,2.03
	c-3.45,1.04-6.43,1.94-9.36,3.02C339.54,132.38,338.22,132.87,336.96,133.41z"/>
<path id="CA1v_Right" class="st95" d="M336.96,133.41c-1.56,0.66-3.02,1.37-4.21,2.15c-2.16,1.42-4.28,3.01-5.44,5.05
	c-1.86,3.28-2.42,4.7-2.8,6.82c-0.39,2.11-0.52,3.47-0.52,4.85c0,1.38,0.07,2.09,0.04,3.45c-4.66-11.56-3.55-20.65,5.85-24.84
	c0.27-0.12,0.55-0.24,0.84-0.36L336.96,133.41z"/>
<path id="CA1d_Right" class="st96" d="M336.96,133.41c1.26-0.53,2.59-1.03,3.9-1.51c2.93-1.08,5.91-1.98,9.36-3.02
	c3.45-1.03,5.81-1.45,8.84-2.03c4.31-0.82,7.76-1.24,12.72-1.67c-1.51-0.17-3.09-0.29-4.67-0.37c-2.88-0.14-5.87-0.19-8.88,0.03
	c-1.08,0.08-5.06,0.44-9.59,1.12c-4.53,0.68-8.44,1.56-13.33,2.87c-1.63,0.52-3.17,1.09-4.61,1.7L336.96,133.41z"/>
<path id="BMA_Right" class="st97" d="M292.16,140.22c0.08,0.18,0.15,0.35,0.23,0.52c0.07,0.15,0.14,0.3,0.21,0.45
	c1.25,1.47,2.15,2.57,4.53,4.21c2.37,1.64,5.14,2.99,10.35,4.55c1.63,0.49,3.27,1,4.93,1.55c3.3,1.04,3.77-0.36,2.09-2.88
	c-0.53-0.4-1.09-0.83-1.68-1.29c4.47,5.66-4.64,1.65-8.26,0.23c-1.11-0.44-2.23-0.89-3.34-1.46c-2.51-1.28-5.02-3.15-7.53-6.83
	l0-0.01c-0.48,0.32-0.98,0.63-1.51,0.93"/>
<path id="BLA_Right" class="st98" d="M303.87,143.07c1.94,1.38,4.19,2.18,7.15,2.77c0.21,0.2,0.42,0.39,0.65,0.57
	c0.39,0.32,0.77,0.62,1.14,0.91c4.47,5.66-4.64,1.65-8.26,0.23c-1.11-0.44-2.23-0.89-3.34-1.46h-0.02c0,0,1.62-1.65,2.65-3.01"/>
<path id="AOA_Right" class="st99" d="M175.07,211.07c-2.82,0.24-6.78,0.52-8.22,0.82c-0.93,0.2-2.13,0.43-3.62,1.37
	c-0.74,0.47-2.1,1.56-1.4,2.71c1.15,0.45,1.53,0.72,2.59,1.27c1,0.52,3.26,1.03,4.72,1.28c0.75,0.13,4.9,0.76,9.32,1.35
	c2.2,0.3,3.99,1.29,5.98,0.94c1.83-0.32,0.6-5.85,2.39-6.63C185.75,208.19,181.83,210.49,175.07,211.07z M184.9,217.07
	c-0.07,1.18-0.16,2.56-1.23,2.85c-1.31,0.35-6.67-0.58-7.98-0.73c-1.17-0.14-3.62-0.55-5.28-0.73c-1.76-0.19-3.75-0.72-5.04-1.27
	c-1.3-0.56-2.1-1.64-2.13-1.99c-0.07-0.79,0.24-1.23,0.91-1.57c0.7-0.35,1.49-0.53,2.42-0.77c1.18-0.3,2.86-0.53,4.4-0.66
	c2.39-0.21,1.79-0.18,3.83-0.27c2.1-0.1,7.44-0.84,9.13,0.37C185.45,213.37,185.06,214.42,184.9,217.07z"/>
<path id="_x36_b_x2C__CLA_x2C__EP_Right" class="st100" d="M292.16,140.22c0.08,0.18,0.15,0.35,0.23,0.52
	c0.07,0.15,0.14,0.3,0.21,0.45c-1.42,0.86-3.24,1.7-5.57,2.48c-2.33,0.78-5.18,1.38-8.97,1.9c-4.22,0.57-7.94,1.03-17.52,3.15
	c-9.42,2.08-24.25,7.02-30.41,9.97c-5.87,2.8-11.27,6.2-15.83,9.32c-5.18,3.53-10.09,7.51-14.58,12.25
	c-4.49,4.74-7.16,8.62-9.57,12.94c-2.42,4.31-4.14,7.96-5.7,10.38c-1.55,2.41-2,3.94-3.72,5.06c-1.73,1.12-2.83,1.29-4.65,1.53
	c-1.84,0.24-4.38,0.45-5.93,0.73c-1.13,0.19-2.36,0.26-3.49,0.58c-1.05,0.3-5.67,1.6-5.46,4.27c-0.03-0.13-0.04-0.3-0.04-0.43
	c0-0.32,0.06-0.63,0.19-0.92c1.07-1.81,3.93-2.7,5.06-3.12c1.33-0.5,2.41-0.68,4.57-1.11c1.68-0.34,4.14-0.66,5.91-1.39
	c1.43-0.59,1.82-0.84,3.2-2.17c1.38-1.34,2.67-3.95,4.31-6.72c1.59-2.68,2.54-4.61,4.96-8.8c2.42-4.18,4.92-7.33,7.51-10.35
	c2.59-3.02,4.79-5.05,7.46-7.38c2.67-2.33,4.84-4.23,7.89-6.47c2.19-1.61,4.01-2.6,5.58-3.38c0.61-0.3,1.17-0.57,1.72-0.84
	c2.16-1.08,5.41-2.85,8.31-4.1c6.1-2.63,12.98-5.58,27.13-9.55c6.7-1.88,13.99-3.29,24.63-4.67c5.23-0.68,9.35-2.27,12.58-4.15"/>
<path id="_x35_2_Right" class="st101" d="M236,69.06c6.51-0.93,12.75-1.8,18.87-2.6c8.32-1.08,16.46-1.98,24.99-2.3
	c14.81-0.55,23.03,0,32.9,0c5.41,0,9.5-0.16,13.53-0.52c3.43-0.3,6.82-0.75,10.91-1.31c-5.39-0.46-10.99-0.75-16.49-0.78
	c-25.04-0.12-37.31-1.98-67.92,2.61c-1.71,0.26-3.46,0.54-5.29,0.84C247.51,65.01,242.22,66.96,236,69.06z"/>
<path id="_x35_1_Right" class="st102" d="M161.83,215.97c-0.7-1.15,0.66-2.24,1.4-2.71c1.49-0.94,2.69-1.18,3.62-1.37
	c1.44-0.31,5.41-0.58,8.22-0.82c6.75-0.58,10.68-2.88,11.76,3.12c0.64-4.54,1.67-8.56,3.1-12.97c2.71-8.33,10.14-18.92,18.64-26.05
	c8.5-7.13,17.55-11.24,28.79-15.63c11.24-4.39,22.75-7.4,35.91-9.05c10.36-1.3,17.16-1.13,24.12-0.3c0.54,0.06,1.08,0.14,1.62,0.22
	c-2.51-2.43-4.69-5.48-6.44-9.23c-1.42,0.86-3.24,1.7-5.57,2.48c-2.33,0.78-5.18,1.38-8.97,1.9c-4.22,0.57-7.94,1.03-17.52,3.15
	c-9.42,2.08-24.25,7.02-30.41,9.97c-5.87,2.8-11.27,6.2-15.83,9.32c-5.18,3.53-10.09,7.51-14.58,12.25
	c-4.49,4.74-7.16,8.62-9.57,12.94c-2.42,4.31-4.14,7.96-5.7,10.38c-1.55,2.41-2,3.94-3.72,5.06c-1.73,1.12-2.83,1.29-4.65,1.53
	c-1.84,0.24-4.38,0.45-5.93,0.73c-1.13,0.19-2.36,0.26-3.49,0.58c-1.05,0.3-5.67,1.6-5.46,4.27
	C161.43,215.82,161.64,215.9,161.83,215.97z"/>
<path id="_x34_9_Right" class="st103" d="M351.84,119.37c-8.66,2.03-15.11,3.28-20.35,5.41c-0.22,0.1-0.45,0.18-0.67,0.28
	c-4.83,1.98-7.67,3.34-10.03,5.18c-2.46,1.93-4.06,3.96-5.13,6.2c-1.03,2.17-1.62,5.09-1.83,8.3c-3.42-11,3.61-20.34,33.35-26.16
	C348.61,118.75,350.18,119.03,351.84,119.37z"/>
<path id="_x34_8_Right" class="st104" d="M334.15,126.71c1.69-0.59,3.43-1.14,5.14-1.7c5.24-1.71,11.61-2.56,20.81-3.52
	c-2.7-0.8-5.58-1.55-8.27-2.11c-8.66,2.03-15.11,3.28-20.35,5.41c-0.22,0.1-0.45,0.18-0.67,0.28L334.15,126.71z"/>
<path id="_x34_7_Right" class="st105" d="M123.21,195.84c16.52,2.81,32.31,8.88,42.78,15.04c-1.52,0.75-2.76,1.69-2.76,1.69
	c-1.03,0.31-3.06,0.04-8.94-1.25c-3.23-0.71-8.64-1.6-16.24-4.73c-2.24-0.92-6.37-3.73-10.73-7.26
	C125.96,198.24,124.56,197.03,123.21,195.84z"/>
<path id="_x34_6_Right" class="st106" d="M159.12,152.58c-0.82,25.23-5.34,45.31-41.26,38.18c-5.9-5.9-12.01-12.71-18.96-21.25
	c-0.33-0.4-0.63-0.79-0.95-1.19c2.15,1.47,5.76,2.38,8.62,2.57c16.56,1.06,37.19-5.37,52.57-18.51"/>
<path id="_x34_5_Right" class="st107" d="M159.16,152.38c7.78-6.64,14.22-15,18.12-24.98c3.84,12.7,4.93,27.17,3.2,40.68
	c-1.7,13.25-7.08,29.92-14.48,42.81c-10.47-6.17-26.26-12.23-42.78-15.04c-1.09-0.96-2.25-1.97-3.26-2.95
	c-0.71-0.69-1.37-1.41-2.09-2.12c35.92,7.13,40.44-12.96,41.26-38.18"/>
<path id="_x34_4_Right" class="st108" d="M177.28,127.4c1.86-4.75,3.1-10.13,3.68-15.6c2.2-0.37,4.4-0.74,6.6-1.12
	c-0.76,5.67-0.92,12.01-0.29,18.26c1.05,10.49,4.17,19.9,9.66,25.71c2.63,2.78,7.67,5.66,11.87,6.81c2.61,0.71,2.45,2.31-2.79,5.91
	c-7.08,4.86-15.8,15.2-20.71,23.16c-3.82,6.21-5.38,10.75-8.67,14.04c-3.29,3.29-6.44,4.98-8.7,5.6c-0.66,0.18-1.32,0.42-1.94,0.72
	c7.4-12.89,12.78-29.56,14.48-42.81C182.21,154.57,181.12,140.1,177.28,127.4z"/>
<path id="_x34_3_Right" class="st109" d="M216.23,68.76c-4.2,1.56-8.08,3.58-11.49,5.69c-3.5,2.15-6.64,5-9.32,8.45
	c-1.42,1.82-2.68,3.72-3.82,5.86c0.27,1.78,0.47,3.57,0.64,5.59c2.05-4.49,4.68-8.69,8.19-12.48c4.15-4.48,8.84-6.79,15.01-9.25
	c6.17-2.47,12.13-3.7,17.07-4.73c4.94-1.03,15.01-2.85,15.01-2.85c1.83-0.3,3.58-0.58,5.29-0.84c0-0.98-0.07-1.95-0.09-2.93
	c-6.43,0.8-11.67,1.68-16.24,2.59c-4.78,0.95-8.81,1.95-12.81,2.8C221.08,67.17,218.61,67.88,216.23,68.76z"/>
<path id="_x34_2_Right" class="st110" d="M326.29,63.65c-5.42,2.34-19.79,3.53-28.02,3.75c-8.22,0.22-14.8,0.39-24.67,0.66
	c-1.75,0.05-3.39,0.1-4.93,0.13c6.1,2.58,13.79,3.48,22.57,3.24c9.87-0.26,16.46,0.11,25.76-0.68c9.31-0.8,16.98-3.94,21.17-8.29
	c-0.35-0.03-0.64-0.08-0.99-0.11C333.11,62.89,329.72,63.35,326.29,63.65z"/>
<path id="_x34_1_Right" class="st111" d="M268.68,68.18c1.54-0.03,3.18-0.08,4.93-0.13c9.87-0.26,16.45-0.44,24.67-0.66
	c8.22-0.22,22.59-1.41,28.02-3.75c-4.03,0.36-8.12,0.52-13.53,0.52c-9.87,0-18.1-0.55-32.9,0c-8.53,0.31-16.67,1.21-24.99,2.3
	C256.73,68.22,261.54,68.34,268.68,68.18z"/>
<path id="_x34_0_Right" class="st112" d="M251.76,45.71c23.33-4.98,47.23-7.46,71.05-7.27c26.7,5.43,29.24,12.43,29.24,25.59
	c-4.45-0.63-9.1-1.14-13.86-1.57c-0.35-0.03-0.64-0.08-0.99-0.11c-5.39-0.46-10.99-0.75-16.49-0.78
	c-25.04-0.12-37.31-1.98-67.92,2.61c0-0.98-0.07-1.95-0.09-2.93C252.6,56.07,252.33,50.78,251.76,45.71z"/>
<path id="_x33_9_Right" class="st113" d="M322.81,38.43c26.7,5.43,29.24,12.43,29.24,25.59c7.19,1.02,13.87,2.29,19.62,3.49
	c12.17,2.52,20.23,4.88,20.23,4.88c0.57-0.4,1.11-0.8,1.68-1.2c2.42-1.67,4.11-4.49,5.34-7.78c1.33-3.55,5.33-6.61,10.51-5.91
	c5.31,0.71,8.64-0.26,12.67-1.44c1.34-0.39,2.65-0.85,4-1.25C390.85,44.18,356.66,38.7,322.81,38.43z"/>
<path id="_x33_8_Right" class="st114" d="M228.75,156.56c-1.44-6.31-3.52-12.7-6.2-18.86c-1.35-3.1-2.86-6.16-4.51-9.1
	c-1.02-1.82-2.18-3.6-3.46-5.32c-2.59-3.48-5.64-6.7-8.85-9.44c-4.27-3.65-8.99-6.52-13.13-8c-1.36,5.6-1.98,11.63-1.84,17.35
	c0.21,8.25,2.06,19.95,7.61,26.32c6.53,7.5,12.17,9.3,17.48,10.28c2.02,0.37,3.35,0.72,3.82,1.29
	C221.96,159.89,224.31,158.51,228.75,156.56z"/>
<path id="_x33_7_Right" class="st115" d="M352.3,110.7c0.18,0,0.26,0,0.26,0c10.83-14.91,23.56-27.24,39.34-38.32
	c0,0-8.05-2.35-20.23-4.88c-2.97,2.97-10.89,6.95-20.11,10.64c-4.19,1.68-9.13,3.14-14.27,4.27c-2.12,0.71-4.09,1.44-6.02,2.2
	c-6.17,3.29-11.38,11.22-15.08,16.98c-3.21,4.99-5.56,8.9-11.46,14.1c2.96-1.49,6.14-2.83,9.4-3.82c9.46-2.88,21.15-3.63,38.43-1.16
	"/>
<path id="_x33_6_Right" class="st116" d="M352.56,110.7c-17.27-2.47-28.97-1.71-38.43,1.16c-3.26,0.99-6.44,2.33-9.4,3.82
	c-5.63,2.84-10.54,6.23-14.04,8.92c-5.35,4.11-11.92,6.99-18.1,7.82c-6.17,0.82-18.75,4.27-29.2,6.99
	c-7.77,2.02-16.07,0.89-20.86-1.73c2.68,6.17,4.76,12.55,6.2,18.86c0.92-0.41,1.95-0.84,3.07-1.3c4.66-1.92,8.6-3.46,16.01-5.65
	c9.76-2.89,17.99-4.63,24.98-5.45c7.37-0.87,16.28-2.77,22-7.61c3.2-2.7,6.55-6.17,9.37-8.64c1.89-1.66,3.42-3.01,4.82-3.7
	c11.31-5.61,19.59-6.46,30.88-5.93c2.25-0.05,4.38,0.01,6.33,0.17c0.33,0.03,0.62,0.1,0.98,0.14
	C348.93,115.89,350.72,113.24,352.56,110.7z"/>
<path id="_x33_5_Right" class="st117" d="M219.84,161.6c-0.07,0.71-1.19,1.45-2.04,1.91c0.61-0.3,1.17-0.57,1.72-0.84
	c2.16-1.08,5.41-2.85,8.31-4.1c6.1-2.63,12.98-5.58,27.13-9.55c6.7-1.88,13.99-3.29,24.63-4.67c5.23-0.68,9.35-2.27,12.58-4.15
	c3.16-1.82,5.47-3.92,7.16-5.71c4.47-4.72,6.4-5.92,7.74-6.85c0,0,0.77-1.8,6.25-4.27c6.72-3.02,17.47-4.89,26.55-5.09
	c-11.29-0.54-19.57,0.32-30.88,5.93c-1.4,0.69-2.93,2.04-4.82,3.7c-2.81,2.47-6.17,5.93-9.37,8.64c-5.72,4.84-14.64,6.74-22,7.61
	c-6.99,0.82-15.23,2.56-24.98,5.45c-7.4,2.19-11.34,3.74-16.01,5.65c-1.12,0.46-2.14,0.9-3.07,1.3c-4.43,1.95-6.78,3.33-9.08,4.51
	C219.81,161.23,219.86,161.42,219.84,161.6z"/>
<path id="_x33_3_TT_Right" class="st118" d="M186.83,214.19c-1.79,0.78-0.56,6.31-2.39,6.63c-1.98,0.35-3.78-0.65-5.98-0.94
	c-4.42-0.59-8.57-1.22-9.32-1.35c-1.46-0.25-3.72-0.76-4.72-1.28c-1.06-0.55-1.44-0.82-2.59-1.27c-0.19-0.07-0.4-0.15-0.64-0.24
	c0.46,1.91,4.25,3.65,11.68,4.09c0.86,0.05,1.75,0.12,2.59,0.2c0.73,0.07,1.41,0.18,2.38,0.3c2.17,0.34,3.79,0.93,4.48,1.5
	c2.22,1.88,2.5,3.76,2.5,3.76h1.21c0.05-3.51,0.24-6.57,0.56-9.4C186.65,215.51,186.74,214.84,186.83,214.19z"/>
<path id="_x33_3_IG_x2C__rostral_end_Right" class="st119" d="M186.01,226.34l-78.17,0h-0.22c-0.81,0-4.47-0.2-8.59-0.97
	c-22.52-4.18-29.36-22.79-28.38-41.33c1.2-22.88,6.27-40.94,20.9-65.32c17.02-28.37,41.8-52.25,78.38-73.16
	c36.58-20.9,76.63-35.1,121.06-34.84c44.8,0.26,88.73,7.32,125.43,20.03c26.59,9.22,46.88,23.23,65.32,40.93
	c10.91,10.47,14.65,27.01,10.45,44.42c-4.11,17.03-12.7,25.7-27.87,18.29c-7.83-3.83-16.93-8.83-24.6-11.77
	c-4.06-1.56-8.97-2.87-14.18-3.66l0.13-1.05c1.42,0.22,2.83,0.49,4.22,0.81c9.31,2.11,19.12,6.95,27.57,11.18
	c8.44,4.22,14.28,6.7,18.5,6.21c4.22-0.5,8.06-3.59,10.43-7.95c3.85-7.07,5.84-13.28,6.33-21.61c0.2-3.31,0.22-6.64-0.16-10.03
	c-0.58-5.13-2.09-10.39-5.3-15.92c-5.34-9.19-9.64-11.88-18.38-18.88c-11.18-8.94-22.6-16.64-33.9-22.23
	c-11.3-5.59-23.47-9.56-38.5-13.78c-15.03-4.22-30.18-7.2-48.56-9.69c-18.38-2.48-29.68-3.23-40.48-3.85
	c-10.8-0.62-22.1-0.62-33.53,0.25c-11.42,0.87-24.71,2.98-36.63,6.08c-11.92,3.11-26.94,8.32-38.74,13.53
	c-11.8,5.22-23.59,11.55-35.02,18.38c-2.65,1.59-5.44,3.31-8.4,5.24c-3.67,2.4-7.61,5.12-11.85,8.29c-2.31,1.72-4.7,3.58-7.2,5.59
	c-10.18,8.19-17.14,14.9-23.35,21.86c-6.21,6.95-12.54,15.4-17.76,23.34c-5.21,7.95-8.82,14.78-12.17,22.23
	c-3.35,7.45-6.71,16.64-8.19,22.97c-1.49,6.33-2.48,13.66-3.1,20.49c-0.62,6.83,0.12,15.15,1.24,19.74
	c1.12,4.59,3.25,9.29,6.58,13.29c3.8,4.56,7.71,7.13,12.55,9.12c4.84,1.99,11.48,3.04,18.06,3.04c6.58,0,14.9-0.03,25.58-0.03
	c3.57,0,8.22,0,13.09,0c7.51,0,18.93,0.02,23.61,0.02c4.69,0,9.11-0.02,13.8-0.02L186.01,226.34z"/>
<path id="_x33_2_Right" class="st120" d="M103.23,220.03c-6.13-0.82-11.87-2.44-16.38-6.17c-6.31-5.21-10.69-13.71-11.79-23.03
	c-0.7-5.94-0.29-12.44,0.82-18.78c0.63-3.61,1.48-7.17,2.47-10.55c1.91-6.51,3.68-12.61,6.45-19.54c1.2-2.99,2.57-6.1,4.24-9.52
	c2.05-4.2,4.16-7.95,6.34-11.49c3.67-5.94,7.59-11.24,12.03-16.75c0.39-0.49,0.8-0.94,1.21-1.43c7.93-9.48,19.35-19.84,30.04-28.17
	c6.78-5.29,12.37-9.59,20.36-14.69c-0.48-0.57-1.23-1.39-1.87-2.05c-0.73-0.77-1.48-1.52-2.04-2.18c-3.67,2.4-7.61,5.12-11.85,8.29
	c-0.19,2.95-9.94,10.12-18.11,18.1c-9.05,8.84-19.95,20.15-27.14,31.05c-7.2,10.9-16.17,27.58-20.36,42.57
	c-3.91,13.98-8.02,31.46-1.85,46.88c6.17,15.42,16.89,18.72,25.29,19.95c8.43,1.23,17.07,1.23,24.06,1.23c6.99,0,23.44,0,23.44,0
	c0-0.83-0.01-1.59-0.01-2.46c-18.1,0-29.12,0-37.9-0.55C108.2,220.56,105.67,220.36,103.23,220.03z"/>
<path id="_x33_1_Right" class="st121" d="M480.21,80.6c0.37,0.5,0.69,1,1.04,1.52c4.29,6.32,5.47,12.42,5.08,20.37
	c-0.08,1.7-0.2,3.52-0.42,5.41c-0.09,0.76-0.15,1.48-0.24,2.15c4.39,1.1,5.31-15.44,0.37-25.32c-4.93-9.87-21.38-24.67-41.67-36.19
	c-20.29-11.51-50.86-22.73-83.91-27.96c-32.94-5.22-63.61-6.58-84.44-5.49c-20.84,1.1-46.61,7.68-63.06,13.71
	c-16.45,6.03-41.01,19.18-55.81,29.05c0.63,0.66,1.39,1.48,1.87,2.05c5.27-3.36,11.56-7.06,19.94-11.63
	c2.74-1.49,5.32-2.86,7.78-4.18c6.07-3.26,11.45-6.07,16.97-8.56c6.41-2.9,13-5.42,21.01-7.76c3.85-1.12,7.99-2.27,12.65-3.34
	c3.43-0.8,6.73-1.46,9.88-2.09c4.6-0.93,8.9-1.76,13.09-2.39c14.68-2.2,27.72-2.66,44.75-2.1c25.22,0.82,43.05,2.74,65.8,7.68
	c22.76,4.94,32.63,7.96,47.17,13.71c13.16,5.21,17.68,7.27,23.44,11.1c0,0,11.65,6.86,19.88,12.89
	C469.03,68.81,475.32,73.92,480.21,80.6z"/>
<path id="_x33_0_Right" class="st122" d="M477.14,127.9c-2.83,2.2-6.32,2.83-10.83,0.83c-4.48-1.99-9.95-5.42-18.23-8.64
	c-9.13-3.55-18.65-6.37-26.32-6.99c-11.51-0.94-21.19,1.28-30.58,3.16c-10.97,2.19-19.33,3.29-26.46,3.15
	c-7.13-0.14-17.53-0.82-17.53-0.82c1.42,0.17,3,0.44,4.65,0.79c2.68,0.56,5.56,1.31,8.27,2.11c2.52,0.74,4.89,1.53,6.8,2.23v-0.01
	c9.97-1.88,19.85-3.86,30.21-5.93c10.35-2.07,20.89-2.44,29.55-1.13c8.66,1.32,19.07,5.59,25.21,8.66
	c8.09,4.05,12.62,5.9,16.28,7.15c4.14,1.41,8,1.51,10.54,0.1c2.54-1.41,5.36-3.95,7.43-7.53c2.07-3.58,4.33-8.84,5.27-13.45
	c0.94-4.61,1.16-9.79,1.16-15.06c-1.44,16.88-6.44,27.21-14.68,30.78"/>
<path id="_x32_9_Right" class="st123" d="M366.91,123.71c0.08,0.03,0.15,0.06,0.23,0.08c1.65,0.61,3.05,1.23,4.64,1.38
	c1.12,0.11,2.35-0.03,3.8-0.55c4-1.44,13.34-4.02,22.38-5.66c10.98-2.01,19.63-2.31,27.69-1.06c1.42,0.22,2.83,0.49,4.22,0.81
	c9.31,2.11,19.12,6.95,27.57,11.18c8.44,4.22,14.28,6.7,18.5,6.21c4.22-0.5,8.06-3.59,10.43-7.95c3.85-7.07,5.84-13.28,6.33-21.61
	c0.2-3.31,0.22-6.64-0.16-10.03c0,5.27-0.22,10.45-1.16,15.06c-0.94,4.61-3.2,9.88-5.27,13.45c-2.07,3.57-4.89,6.12-7.43,7.53
	c-2.54,1.41-6.4,1.32-10.54-0.1c-3.66-1.25-8.18-3.1-16.28-7.15c-6.14-3.07-16.56-7.34-25.21-8.66c-8.65-1.32-19.2-0.94-29.55,1.13
	c-10.35,2.07-20.23,4.05-30.21,5.93"/>
<path id="_x32_8_x2C__34__x28_ENT_x29___x28_ENTm_x29__Right" class="st124" d="M316.04,149.79c-1.21-2.19-1.85-3.93-2.2-5.05
	c-3.42-11,3.61-20.34,33.35-26.16c-8.53,0.81-13.04,1.23-18.11,2.55c-4.29,1.11-7.62,2.22-10.73,3.63
	c-3.11,1.41-5.48,2.89-6.66,4.44c-0.49,0.72-0.47,0.68-0.79,1.24l-0.45,1.09l-0.33,1.16c-0.49,3.64-0.29,3.74-0.04,6.14
	C310.55,143.56,314.62,148.43,316.04,149.79"/>
<path id="_x32_8_x2C__34__x28_ENT_x29___x28_ENTl_x29__Right" class="st125" d="M316.03,149.8l-1.54-1.19
	c-0.53-0.4-1.09-0.83-1.68-1.29c-0.37-0.29-0.75-0.59-1.14-0.91c-0.23-0.18-0.44-0.37-0.65-0.57c-6.32-6-3.94-18.2-3.94-18.2
	s0.77-1.8,6.25-4.27c6.72-3.02,17.47-4.89,26.55-5.09c2.25-0.05,4.38,0.01,6.33,0.17c0.33,0.03,0.62,0.1,0.98,0.14
	c-8.53,0.81-13.04,1.23-18.11,2.55c-4.29,1.11-7.62,2.22-10.73,3.63c-3.11,1.41-5.48,2.89-6.66,4.44c-0.49,0.72-0.47,0.68-0.79,1.24
	l-0.45,1.09l-0.33,1.16c-0.49,3.64-0.29,3.74-0.04,6.14c0.48,4.72,4.55,9.59,5.98,10.95"/>
<path id="_x32_7_Right" class="st126" d="M328,129.19c-1.11,0.56-2.14,1.15-3.03,1.8c-3.53,2.57-5.49,5.29-5.99,8.34
	c-0.75,4.59-2.05,8.19-5.15,5.41c0.21-3.21,0.8-6.13,1.83-8.3c1.07-2.24,2.67-4.28,5.13-6.2c2.36-1.84,5.2-3.19,10.03-5.18
	l3.33,1.64C331.96,127.46,329.86,128.27,328,129.19z"/>
<path id="_x32_6_Right" class="st127" d="M375.39,125.77c13.62-4.57,25.11-6.64,34.92-7.44c5.06-0.41,10.28-0.13,15.22,0.62
	l0.13-1.05c-8.06-1.25-16.71-0.95-27.69,1.06c-9.04,1.65-18.39,4.22-22.38,5.66c-1.44,0.52-2.67,0.66-3.8,0.55
	C373.6,125.65,374.44,125.78,375.39,125.77"/>
<path id="_x32_5_Right" class="st128" d="M175.46,220.03c-0.84-0.08-1.73-0.15-2.59-0.2c-7.43-0.44-11.22-2.18-11.68-4.09
	c-0.53,2.13-1.4,3.63-3.88,4.27c-0.39,0.1-0.83,0.18-1.3,0.24c-3.5,0.41-7.41,1.03-7.41,1.03c0,0.87,0.01,1.64,0.01,2.46
	c0,0.54,0,1.21,0,1.86h36.2c0,0-0.28-1.88-2.5-3.76c-0.68-0.58-2.31-1.17-4.48-1.5"/>
<path id="_x32_4_Right" class="st129" d="M143.27,63.95c-2.31,1.72-4.7,3.58-7.2,5.59c-10.18,8.19-17.14,14.9-23.35,21.86
	c-6.21,6.95-12.54,15.4-17.76,23.34c-5.21,7.95-8.82,14.78-12.17,22.23c-3.35,7.45-6.71,16.64-8.19,22.97
	c-1.49,6.33-2.48,13.66-3.1,20.49c-0.62,6.83,0.12,15.15,1.24,19.74c1.12,4.59,3.25,9.29,6.58,13.29c3.8,4.56,7.71,7.13,12.55,9.12
	c4.84,1.99,11.48,3.04,18.06,3.04c6.58,0,14.9-0.03,25.58-0.03c3.57,0,8.22,0,13.09,0c0-0.65,0-1.32,0-1.86c0,0-16.45,0-23.44,0
	c-6.99,0-15.63,0-24.06-1.23c-8.4-1.23-19.12-4.52-25.29-19.95c-6.17-15.42-2.06-32.9,1.85-46.88
	c4.19-14.99,13.16-31.67,20.36-42.57c7.2-10.9,18.09-22.2,27.14-31.05C133.33,74.07,143.08,66.9,143.27,63.95z"/>
<path id="_x32_3_Right" class="st130" d="M482.98,120.21c-0.8,1.65-1.72,3.04-2.96,4.68c-0.67,0.9-1.4,1.71-2.15,2.4
	c8.24-3.57,13.24-13.9,14.68-30.78c-0.58-5.13-2.09-10.39-5.3-15.92c-5.34-9.19-9.64-11.88-18.38-18.88
	c-11.18-8.94-22.6-16.64-33.9-22.23c-11.3-5.59-23.47-9.56-38.5-13.78c-15.03-4.22-30.18-7.2-48.56-9.69
	c-18.38-2.48-29.68-3.23-40.48-3.85c-10.8-0.62-22.1-0.62-33.53,0.25c-11.42,0.87-24.71,2.98-36.63,6.08
	c-11.92,3.11-26.94,8.32-38.74,13.53c-11.8,5.22-23.59,11.55-35.02,18.38c-2.65,1.59-5.44,3.31-8.4,5.24
	c0.55,0.66,1.3,1.41,2.04,2.18c14.81-9.87,39.36-23.02,55.81-29.05c16.45-6.03,42.22-12.61,63.06-13.71
	c20.84-1.1,51.5,0.27,84.44,5.49c33.05,5.23,63.62,16.45,83.91,27.96c20.29,11.52,36.74,26.32,41.67,36.19
	c4.94,9.87,4.01,26.41-0.37,25.32C485.01,114.89,484.15,117.8,482.98,120.21z"/>
<path id="_x32_2_Right" class="st131" d="M205.72,113.83c2.06-14.4,10.5-26.77,24.93-27.87c9.89-0.75,33.28-1.23,44.01-1.23
	c11.1,0,30-0.4,40.72,0c6.58,0.25,14.46-0.67,21.92-2.31c5.14-1.13,10.08-2.59,14.27-4.27c9.23-3.69,17.15-7.67,20.11-10.64
	c-5.75-1.19-12.43-2.46-19.62-3.49c-4.45-0.63-9.1-1.14-13.86-1.57c-4.19,4.35-11.87,7.5-21.17,8.29
	c-9.3,0.79-15.89,0.42-25.76,0.68c-8.79,0.23-16.47-0.67-22.57-3.24c-7.14,0.16-11.95,0.04-13.8-1.72
	c-6.13,0.8-12.36,1.67-18.87,2.6c-2.07,0.7-4.27,1.42-6.38,2.09c-8.43,2.68-14.81,5.35-20.77,9.46c-5.96,4.11-9.71,8.46-13.16,16.04
	c-1.28,2.81-2.31,5.93-3.1,9.18C196.73,107.3,201.45,110.18,205.72,113.83z"/>
<path id="_x32_1_Right" class="st132" d="M337.29,82.41c-7.46,1.64-15.35,2.56-21.92,2.31c-10.72-0.4-29.61,0-40.72,0
	c-10.72,0-34.12,0.48-44.01,1.23c-14.42,1.1-22.87,13.48-24.93,27.87c3.21,2.74,6.26,5.96,8.85,9.44c3.7-9.87,8.67-18.4,20.6-20.86
	c9.96-2.06,25.09-2.06,42.36-2.88c17.27-0.82,27.34-1.92,35.37-6.17c5.49-2.9,11.35-5.98,18.37-8.75"/>
<path id="_x32_0_Right" class="st133" d="M222.54,137.7c4.78,2.62,13.08,3.75,20.86,1.73c10.45-2.72,23.03-6.17,29.2-6.99
	c6.17-0.83,12.75-3.7,18.1-7.82c3.5-2.69,8.41-6.09,14.04-8.92c5.9-5.21,8.25-9.12,11.46-14.1c3.7-5.76,8.91-13.69,15.08-16.98
	c-7.02,2.77-12.89,5.85-18.37,8.75c-8.03,4.25-18.1,5.35-35.37,6.17c-17.27,0.82-32.4,0.82-42.36,2.88
	c-11.93,2.47-16.9,10.99-20.6,20.86c1.28,1.72,2.44,3.5,3.46,5.32C219.69,131.53,221.19,134.59,222.54,137.7z"/>
<path id="_x31_9_Right" class="st134" d="M352.3,110.7c0.18,0,0.26,0,0.26,0c10.83-14.91,23.56-27.24,39.34-38.32
	c0.57-0.4,1.11-0.8,1.68-1.2c2.42-1.67,4.11-4.49,5.34-7.78c1.33-3.55,5.33-6.61,10.51-5.91c5.31,0.71,8.64-0.26,12.67-1.44
	c1.34-0.39,2.65-0.85,4-1.25c4.92-1.46,9.98-2.91,15.39-4.49c0,0,11.65,6.86,19.88,12.89c7.65,5.61,13.94,10.72,18.84,17.39
	c-7.88-5.88-13.7-9.6-19.25-11.5c-8.25-2.82-20.56-4.93-31.67-2.47c-11.1,2.47-22.21,9.05-33.32,16.86
	c-11.11,7.82-16.87,18.51-14.4,22.21c2.47,3.7,13.99,1.64,22.22,0c8.23-1.65,23.44-0.83,36.19,0.82
	c12.75,1.65,25.67,8.6,37.18,21.35l-0.03,0.03c-2.83,2.2-6.32,2.83-10.83,0.83c-4.48-1.99-9.95-5.42-18.23-8.64
	c-9.13-3.55-18.65-6.37-26.32-6.99c-11.51-0.94-21.19,1.28-30.58,3.16c-10.97,2.19-19.33,3.29-26.46,3.15
	c-7.13-0.14-17.53-0.82-17.53-0.82c1.74-2.69,3.53-5.34,5.37-7.88"/>
<path id="_x31_8_Right" class="st135" d="M477.18,127.87c-11.51-12.75-24.43-19.7-37.18-21.35c-12.75-1.64-27.96-2.47-36.19-0.82
	c-8.23,1.64-19.75,3.7-22.22,0c-2.47-3.7,3.29-14.4,14.4-22.21c11.11-7.81,22.22-14.4,33.32-16.86c11.1-2.46,23.42-0.36,31.67,2.47
	c5.55,1.9,11.36,5.62,19.25,11.5c0.37,0.5,0.69,1,1.04,1.52c4.29,6.32,5.47,12.42,5.08,20.37c-6.51-8.95-15.87-18.36-27.84-22.69
	c-12.4-4.5-25.13-3.59-33.29-0.32c-24.43,9.79-26.16,20.05-8.65,15.53c7.32-1.89,22.17-2.7,34.96,0
	c12.5,2.63,21.45,10.83,31.47,25.2c-0.8,1.65-1.72,3.04-2.96,4.68c-0.67,0.9-1.4,1.71-2.15,2.4"/>
<path id="_x31_7_Right" class="st136" d="M482.98,120.21c-10.02-14.38-18.97-22.57-31.47-25.2c-12.79-2.7-27.64-1.89-34.96,0
	c-17.51,4.52-15.77-5.74,8.65-15.53c8.16-3.27,20.89-4.18,33.29,0.32c11.97,4.34,21.33,13.75,27.84,22.69
	c-0.08,1.7-0.2,3.52-0.42,5.41c-0.09,0.76-0.15,1.48-0.24,2.15C485.01,114.89,484.15,117.8,482.98,120.21z"/>
<path id="_x31_3-16__x28_INS_x29__Right" class="st137" d="M192.23,94.33c-0.95,2.09-1.79,4.22-2.51,6.43
	c-0.92,2.84-1.68,6.26-2.17,9.92c-0.76,5.67-0.92,12.01-0.29,18.26c1.05,10.49,4.17,19.9,9.66,25.71c2.63,2.78,7.67,5.66,11.87,6.81
	c2.61,0.71,2.45,2.31-2.79,5.91c-7.08,4.86-15.8,15.2-20.71,23.16c-3.82,6.21-5.38,10.75-8.67,14.04c-3.29,3.29-6.44,4.98-8.7,5.6
	c-0.66,0.18-1.32,0.42-1.94,0.72c-1.52,0.75-2.76,1.69-2.76,1.69c-0.97,0.56-1.6,1.15-1.89,1.81c1.07-1.81,3.93-2.7,5.06-3.12
	c1.33-0.5,2.41-0.68,4.57-1.11c1.68-0.34,4.14-0.66,5.91-1.39c1.43-0.59,1.82-0.84,3.2-2.17c1.38-1.34,2.67-3.95,4.31-6.72
	c1.59-2.68,2.54-4.61,4.96-8.8c2.42-4.18,4.92-7.33,7.51-10.35c2.59-3.02,4.79-5.05,7.46-7.38c2.67-2.33,4.84-4.23,7.89-6.47
	c2.19-1.61,4.01-2.6,5.58-3.38c0.86-0.45,1.97-1.2,2.04-1.91c0.02-0.18-0.03-0.36-0.18-0.53c-0.47-0.57-1.8-0.92-3.82-1.29
	c-5.31-0.98-10.95-2.78-17.48-10.28c-5.55-6.37-7.4-18.07-7.61-26.32c-0.14-5.72,0.48-11.75,1.84-17.35
	c0.79-3.25,1.82-6.37,3.1-9.18c3.45-7.59,7.2-11.93,13.16-16.04c5.96-4.11,12.34-6.78,20.77-9.46c2.11-0.67,4.31-1.39,6.38-2.09
	c6.22-2.1,11.5-4.05,11.5-4.05s-10.07,1.82-15.01,2.85c-4.93,1.03-10.9,2.26-17.07,4.73c-6.17,2.47-10.86,4.77-15.01,9.25
	C196.91,85.64,194.28,89.84,192.23,94.33z"/>
<path id="_x31_2_Right" class="st138" d="M157.31,220c-0.39,0.1-0.83,0.18-1.3,0.24c-3.5,0.41-7.41,1.03-7.41,1.03
	c-18.1,0-29.12,0-37.9-0.55c-2.5-0.15-5.03-0.35-7.47-0.68c-6.13-0.82-11.87-2.44-16.38-6.17c-6.31-5.21-10.69-13.71-11.79-23.03
	c-0.7-5.94-0.29-12.44,0.82-18.78c2.62,17.22,7.9,30.95,21.24,38.36c4.25,2.36,10.33,4.27,17,5.69c6.13,1.31,12.76,2.2,18.94,2.63
	C139.79,219.21,149.32,219.54,157.31,220z"/>
<path id="_x31_1_Right" class="st139" d="M161.19,215.73c-0.03-0.13-0.04-0.3-0.04-0.43c0-1.05,0.69-1.91,2.09-2.72
	c-1.03,0.31-3.06,0.04-8.94-1.25c-3.23-0.71-8.64-1.6-16.24-4.73c-2.24-0.92-6.37-3.73-10.73-7.26c-2.14,3.43-4.19,6.28-6.13,9.02
	c-1.81,2.56-4.8,5.85-7.07,7.75c6.13,1.31,12.76,2.2,18.94,2.63c6.74,0.48,16.28,0.81,24.26,1.27
	C159.79,219.36,160.66,217.86,161.19,215.73z"/>
<path id="_x31_0_Right" class="st140" d="M84.8,141.95c0,0,1.89,11.98,13.17,26.37c0.31,0.4,0.62,0.79,0.95,1.19
	c6.94,8.54,13.06,15.35,18.96,21.25c0.71,0.71,1.38,1.43,2.09,2.12c1.01,0.98,2.17,1.99,3.26,2.95c1.35,1.19,2.74,2.4,4.1,3.5
	c-2.14,3.43-4.19,6.28-6.13,9.02c-1.81,2.56-4.8,5.85-7.07,7.75c-6.67-1.42-12.75-3.33-17-5.69c-13.35-7.41-18.62-21.14-21.24-38.36
	c0.63-3.61,1.48-7.17,2.47-10.55C80.26,154.98,82.03,148.88,84.8,141.95z"/>
<path id="_x39__Right" class="st141" d="M160.15,114.95c-9.97,24.37-49.28,41.22-64.77,5.99c-2.18,3.54-4.29,7.29-6.34,11.49
	c-1.67,3.42-3.05,6.53-4.24,9.52c0,0,1.89,11.98,13.17,26.37c2.15,1.47,5.76,2.38,8.62,2.57c16.56,1.06,37.19-5.37,52.57-18.51
	c7.78-6.64,14.22-15,18.12-24.98c1.86-4.75,3.1-10.13,3.68-15.6c-6.99,1.17-14,2.27-20.79,3.03"/>
<path id="_x38__Right" class="st142" d="M160.17,114.83c-21.98,2.47-41.73,1.43-51.54-12.07c-0.41,0.49-0.82,0.95-1.21,1.43
	c-4.44,5.52-8.36,10.82-12.03,16.75c15.49,35.23,54.8,18.37,64.77-5.99"/>
<path id="_x37__Right" class="st143" d="M260.34,19.93c5.43,2.17,10.5,6.02,13.63,11.17c3.15,5.16-4.06,7.22-22.98,8.73
	c0.29,1.95,0.54,3.88,0.77,5.89c23.33-4.98,47.23-7.46,71.05-7.27c33.85,0.27,68.04,5.74,103.29,16.37
	c4.92-1.46,9.98-2.91,15.39-4.49c-5.76-3.84-10.28-5.89-23.44-11.1c-14.54-5.75-24.41-8.77-47.17-13.71
	c-22.75-4.93-40.58-6.85-65.8-7.68C288.06,17.27,275.02,17.73,260.34,19.93z"/>
<path id="_x36__Right" class="st144" d="M191.6,88.74c0.27,1.78,0.47,3.57,0.64,5.59c-0.95,2.09-1.79,4.22-2.51,6.43
	c-0.92,2.84-1.68,6.26-2.17,9.92c-2.19,0.37-4.4,0.75-6.6,1.12c-6.99,1.17-14,2.27-20.79,3.03c-21.98,2.47-41.73,1.43-51.54-12.07
	c7.93-9.48,19.35-19.84,30.04-28.17c6.78-5.29,12.37-9.59,20.36-14.69C177.24,62.17,188.33,67.37,191.6,88.74z"/>
<path id="_x35__Right" class="st145" d="M251,39.82c18.92-1.5,26.13-3.57,22.98-8.73c-3.14-5.14-8.21-9-13.63-11.17
	c-4.2,0.63-8.5,1.45-13.09,2.39C248.72,27.48,250.05,33.47,251,39.82z"/>
<path id="_x34__Right" class="st146" d="M191.6,88.74c-3.27-21.37-14.36-26.58-32.58-28.85c5.27-3.36,11.56-7.06,19.94-11.63
	c2.74-1.49,5.32-2.86,7.78-4.18c0,0,3.56,5.35,6.21,15.42c2.26,8.62,2.47,23.39,2.47,23.39C194,84.71,192.74,86.61,191.6,88.74z"/>
<path id="_x33__Right" class="st147" d="M216.23,68.76c-2.47-11.52-7.58-22.56-12.52-33.25c-5.51,2.49-10.9,5.31-16.97,8.56
	c0,0,3.56,5.35,6.21,15.42c2.26,8.62,2.47,23.39,2.47,23.39c2.68-3.44,5.82-6.29,9.32-8.45C208.16,72.34,212.03,70.31,216.23,68.76z
	"/>
<path id="_x32__Right" class="st148" d="M236.46,63.83c-2.05-10.69-6.81-24.57-11.75-36.08c3.85-1.12,7.99-2.27,12.65-3.34
	c3.43-0.8,6.73-1.46,9.88-2.09c1.48,5.16,2.81,11.16,3.75,17.51c0.29,1.95,0.54,3.88,0.77,5.89c0.57,5.07,0.84,10.36,0.94,15.53
	C246.27,62.04,241.03,62.92,236.46,63.83z"/>
<path id="_x31__Right" class="st149" d="M236.46,63.83c-2.05-10.69-6.81-24.57-11.75-36.08c-8.01,2.34-14.59,4.86-21.01,7.76
	c4.94,10.69,10.05,21.73,12.52,33.25c2.38-0.88,4.85-1.59,7.43-2.13C227.65,65.79,231.69,64.79,236.46,63.83z"/>
</svg>
